<?xml version="1.0" encoding="utf-8"?>
<!-- Generator: Adobe Illustrator 20.1.0, SVG Export Plug-In . SVG Version: 6.00 Build 0)  -->
<svg version="1.1" id="Layer_1" xmlns="http://www.w3.org/2000/svg" xmlns:xlink="http://www.w3.org/1999/xlink" x="0px" y="0px"
	 viewBox="0 0 1000 1000" style="enable-background:new 0 0 1000 1000;" xml:space="preserve">
<style type="text/css">
	.st0{display:none;fill:none;stroke:#000000;stroke-width:4;stroke-miterlimit:10;}
	.st1{fill:none;stroke:#000000;stroke-width:5;stroke-miterlimit:10;}
</style>
<image style="display:none;overflow:visible;" width="324" height="193" xlink:href="../../../../Users/Adam/Pictures/birdsvector.png"  transform="matrix(3.0759 0 0 3.0759 1.7087 203.1783)">
</image>
<polygon class="st0" points="287.1,804.7 300.4,775.8 339.3,743.6 354.9,729.1 372.7,709.1 392.7,684.7 399.3,663.6 393.8,631.3 
	377.1,586.9 352.7,536.9 327.1,500 292.7,459.1 279.3,426.9 269.3,352.4 277.1,276.9 296,194.7 316,101.3 334.3,49.1 349.3,15.8 
	356.7,10.7 357.3,14.7 358.7,25 361,31.3 373.3,13 378,13 376.3,20 376.7,28.7 376.7,37.3 380.7,41 397.3,43 399.3,49 399.3,64 
	395.7,79.7 394.3,101.3 392,115.3 385.7,126.7 387.7,140.7 394.3,140 406,136 411.3,137.7 411.3,148.7 417.7,163 417.7,180.3 
	425.7,191.3 427.7,201.7 431,208.3 431,222 435,228.3 442.7,233.3 442.7,248.3 442.7,259 450.7,267.7 453.7,279.7 453.7,289.7 
	445.3,300 442.3,309 443.3,317 456.3,317.7 467.7,312.3 478,313 478,318.3 475,325.7 471.7,332 470,337.3 490.3,338.7 493.3,345 
	495,350 502.3,355.3 500,361.3 490.3,368.3 494,374 511.7,375 511.7,378 511.7,385 511.7,390.7 518.7,392 521.3,397 521.3,410.7 
	530.3,412 531.7,418 531.7,425.3 541,428.7 547,432.3 544.7,438.3 536,444.3 539.7,448 548.7,452.3 556,460.3 556,470.7 
	562.7,477.7 569.3,500 577.3,514 580.3,526.3 588,533 584.7,538.3 581.3,544 581.3,552.3 584,563.7 592,572.7 596.3,580.7 
	607.3,586.7 610.7,593.7 615.7,597.7 643.7,595 672.3,589.3 700.3,582 737,568.7 765.7,557.3 787.7,547.7 795.7,553.7 793.7,562.7 
	795.7,569.7 798.3,576 795.7,583.3 795.7,590 804,594.3 801.3,600.7 795.3,611 778.7,615.3 752.7,622 716.3,634 677,655.7 
	650.7,669.7 618.3,694.7 569.7,725.7 565.7,742 566.3,749.3 557.3,763.3 553.7,786 545,809.3 540.3,827.3 528.7,843.7 521.3,856.7 
	513.7,873 510,888.3 503.7,895 492.3,900 477.7,900 472,900 475,910.3 479,918.3 489.7,928 497,933.7 495,938.3 488.7,941 
	486,953.3 480.3,960 481.3,965.3 483,975.3 482.3,979.7 466,979.7 437.7,975.3 422.3,967.3 396.7,946.7 383.3,929.7 369.7,907.7 
	365,885 361.3,866.3 362,846.7 374,828 386,816 388.7,804.7 381.7,799.7 368,800 349,808.7 325.7,819.7 310,824.3 298,825 
	280.3,836.7 263.7,850.7 259,856.7 255.3,861.3 253.3,846.7 260.7,831.3 279,816 285.3,808 "/>
<polygon class="st1" points="154.5,606.5 154.5,596.5 157,578.5 154.5,564 157,548 170,531.5 175,523 172.5,515 140,493.5 
	108.5,482 93.5,482 53.5,489 17,502.5 8.5,504.5 6,495 15,487.5 17,476.5 34,461.5 53,447.5 77.5,433 93.5,430.5 114,426.5 
	132.5,423.5 145,417.5 161.5,415 181.5,419 201.5,427.5 210.5,435 223,440.5 232,448.5 238.5,450 248,446.5 261.5,436 278.5,424.5 
	295.5,421.5 318,415 337,410 356,410 373.5,415 386.5,419.5 407.5,421 431,421 451.5,417 471,413 483,412.5 500,410 505,415 
	519.5,414.5 525,422 541.5,424.5 539,430 528,436.5 555.5,439 546,449 534.5,452.5 517,454.5 503.5,457 519.5,460.5 531,463 
	537.5,468.5 532.5,471 515,472.5 500,473 485.5,474 489,481.5 483.5,483 465.5,485 419.5,484 380,483.5 349,482.5 330.5,477.5 
	302.5,472.5 285,473 278,476 275.5,482.5 280.8,489.5 288,488 295.5,486.5 304.5,487 298,496.5 289.5,500 286,505.5 280.8,517 
	265.5,529.5 246,545.5 227,559.5 205,569 189.5,574.5 181.5,577 169,594.5 162,602.5 "/>
<polygon class="st1" points="484,653 500,643 525,619 538,602 555.5,583.5 565,568.5 574.5,550.5 574.5,559.5 569,575.5 
	562.5,587.5 549,601.8 544.5,611 538.5,622 529.3,633 519.5,640.5 509.5,644.5 508,649.5 516.5,649 526,645 532.5,643 532.5,650 
	526,653 519.5,658 510,665 500,675.5 492.5,681 484,690.5 477,697.5 470,688 470,676.5 467.5,668 453.5,665 434,666 409,670 
	392,671 354,672.5 335,667.5 321,662.5 317,653 329.5,653 346.5,656.5 364.5,659 386.5,660.5 412,660.5 427.5,660 454.5,659 
	470.5,657.5 "/>
<polygon class="st1" points="663.5,713.5 666.5,702.5 680.5,689.5 686.5,679.5 693.5,663.5 707.5,652.5 720,643.5 732.5,630 
	746,615 751.5,603 751.5,588.5 743.5,567.5 734,543 720.5,519 707.5,496.5 688.5,477.5 681.5,461.5 676,420 676,388 683.5,347.5 
	689.5,318.5 696.5,292.5 705,254.5 712,227 723.5,208 728,212 736.5,208 742,216 745,224.5 751.5,228.5 751.5,243.5 751.5,263.5 
	747,276 745,282.5 757.5,284.5 761.5,296.5 768,310.5 772,326 772,333 780.5,346.5 780.5,357.5 785,370 781.5,380.5 780.5,391 
	790.5,390 797,391 793,396.5 805.5,401.5 811.5,414.5 811.5,424.5 822,433.5 829,446 837.5,460.8 837.5,473 849,488.5 858,508.3 
	860.5,520.5 865.5,538.5 875.5,550.5 889,557.5 916.5,554.5 936,547 966.5,535.5 983.5,529 989,531 989,543.5 989,553 994.5,561 
	987,568 951.5,579 927.5,587 909.5,601 896.5,604 877.5,624 852.5,637.5 850.5,651.5 845,660 841.5,678 833.5,697.5 822,719.5 
	818,732 814.5,738 803,743 796.5,748 806,753.5 810,761 805.5,766.5 802.5,773 805.5,784 801.5,792 778.5,789 755.5,774 735,751.5 
	730.5,736 725.5,714.5 728.5,703.5 736.5,697.5 744,688 743,679 730,681 717.5,687.5 697.5,694.5 684.5,697.5 672.5,710 "/>
</svg>
