<?xml version="1.0" encoding="utf-8"?>
<!-- Generator: Adobe Illustrator 20.1.0, SVG Export Plug-In . SVG Version: 6.00 Build 0)  -->
<svg version="1.1" id="Layer_1" xmlns="http://www.w3.org/2000/svg" xmlns:xlink="http://www.w3.org/1999/xlink" x="0px" y="0px"
	 viewBox="0 0 225.3 151.4" style="enable-background:new 0 0 225.3 151.4;" xml:space="preserve">
<style type="text/css">
	.st0{display:none;fill:#B5CFE2;}
	.st1{display:none;fill:#C9C9C9;}
	.st2{display:none;fill:#E0E0E0;}
	.st3{display:none;fill:#EAEAEA;}
	.st4{display:none;fill:#FF2424;}
	.st5{fill:none;stroke:#FFFFFF;stroke-width:2;stroke-miterlimit:10;}
</style>
<image style="display:none;overflow:visible;" width="1358" height="971" xlink:href="../assets/Pictures by Vicki Tomori/Chantry Island 7.jpg"  transform="matrix(0.1353 0 0 0.1353 109.8333 20.0591)">
</image>
<rect x="190.6" y="35" class="st0" width="9.5" height="8.3"/>
<path class="st1" d="M189.3,43.6c0,0,5.2-1.8,12.4,0v4.6l-12.4,0.6V43.6z"/>
<path class="st2" d="M204.1,47.9l-1.1,2.8l-14.8,0.9l-1.4-3.6C186.8,47.9,195.8,45.6,204.1,47.9z"/>
<path class="st3" d="M206.3,112.8l-3-62.8c0,0-8.2-2-15.4,0l-4.1,65.4c0,0,0.2-1.6,1.4-1.6s2.1,0.5,2.1,0.5l2.2-0.3h1.3l1.1,0.2
	l1-0.9l1.4-0.6h1.6l1.4-0.3l1.9,0.3l1,0.7l1.1,0.1l0.8,0.4l0.6,0.6l1.1-0.4l1.4-0.6h1V112.8z"/>
<polygon class="st4" points="190.7,34.9 191.2,34.1 192.1,33 193.1,32.3 194.3,31.8 194.5,31.8 194.7,31.4 195.1,31.1 195.2,30.8 
	194.7,30.1 194.6,29.3 195,28.7 195.6,28.4 196.2,28.4 196.6,28.8 196.8,29.6 196.6,30.1 196.3,30.5 196.3,30.7 196.2,31 
	196.4,31.2 196.7,31.5 196.9,31.7 197.5,31.9 198.4,32.4 199.1,33 199.7,33.7 200,34.4 200.1,35 190.6,35 "/>
<path class="st5" d="M2.7,125.8h32.5l-1.8-3l0.7-3.2l2.2-0.7l2.8-2l-2.5-3.2l0.3-5l4.3-0.2l0.8,1.8l1.7-1.5v-1.8l1.5-0.8l1.8,0
	l0.7-0.9l1.9-0.8l0.9,0.4l0.9,0.4v-1.1l-0.4-0.9l0.4-0.8l-0.4-1.1l0.4-0.8l0.6-0.9v-0.9l-0.4-0.7l0.4-0.6h1l1.1-1h0.9l0.7-0.6V95
	v-0.9l1.6-0.6h1.9l1,0.4h1.4l1-0.4l0.9,1.3l0.4,0.7l2.1,0.4l0.5-1.4l-1.8-0.9l-0.4-0.9l0.9-1.4l1.9-1.8l1.1-1.2l1.3-0.4l1.3,1.2
	l0.8,1l1.2-0.5l0.7,0.2l1.1,0.6v1.1l1,0.3l1,0.4l0.5,1.1v0.9v1.2l-0.3,0.9l1.1-0.1l1-0.3l1.2-0.3l1.3,1l1,0.5l0.3,0.9l0.8,0.4
	l6.1-0.1v-1.3l-0.5-0.4l1.2-1.1v-0.9l0.8-0.9v1.4v0.6l0.7,0.2l0.8,0.7l-0.2,2.1l0.9,0.1l0.3,0.2l0.4,0.9l0.5-0.2l0.2-0.8v-0.3l1-0.4
	l1.3-1.2v-0.5l1.2-0.6l1.2-0.1l0.4,0.9l0.5,0.4h0.8l0.7-0.5l0.7,0.5l1,0.6v0.5l0.4,0.4l1.1-0.5l0.3-1.2l1.1-1l-0.9-0.6l-1.4,0.6
	l0-0.8l0.2-0.6l0.5-0.5l1.1,0.1l0.5,0.7l0.4-0.8v-0.8v-0.5l0.8-0.7l1.7-0.3l1.3-0.1l0.9,0.2l0.7-0.7l0.9-1l0.8,0l0.4-0.1l2.2-40.2
	l-1-1.4l0-0.9l0.7-0.4l0-2.8l1.7-0.2v-0.8l0.8-1.2l0.6-0.2v-6.3l-0.8-0.6l1-0.6l1.2-1.4l0.9-0.7l1.1-0.7l0.6-0.2l0.2-1.2l-0.3-0.8
	l0.2-0.7l0.5-0.4h0.6l0.5,0.2L125,29v0.8l-0.3,0.5l0,0.9l0.6,0.2l1.1,0.6l0.9,0.8l0.7,0.9l0.4,0.9l0.4,0.2l0.6,0.3v0.5L129,36v7.2
	l1.2,0.6l1.7,0.3v3.1l0.6,0.2V48l-0.5,0.2l-0.2,1.9l2.1,45.6l2.3,1l1.6,1.1l0.9,0.8l0.4-1.3l-1.1-0.7v-1.8l1.1-0.7l1.3-0.6l1.7,0.4
	l1.1-0.6l1.6,0.3l1.1,0.5l1.1,0.8l-0.3,1.3l0.7,1.4l-0.9,0.6l-1-0.7l-1.1-0.1l0.3,1.3l0.9,0.3l0.4,0.9l0.3,1.1l-0.7,1l0.5,0.7
	l1.3,0.2l0.9,1.6l0.6,0.4l1.3,1.4h1.3l0.8,0.8h1.3l-0.4-2c0,0-0.4-1-0.6-0.9s-1.4-0.1-1.4-0.1l-1.9-1V102l-0.9-0.3l0.6-1.2l0.6-1.3
	l-0.4-1.9l1.1-0.6l1.3-0.3l0.9-0.4l1.1,0.2l1.1,0.2l-0.3-1.6l-1.1-0.8l-0.4-0.7l0.5-1.1l-1.5-1.4l-0.5-1.2v-1.4l-1.4,0.3l-0.1-1.1
	l0.6-0.5l-1.9-0.4l0.1-1.2l-0.1-0.8l-1.4,0.3l-0.4,0.9l-0.9-1l0.8-1.6l0.7-0.9l0.9-0.1l-0.1-0.8l-1.3-0.5l0.1-1.5l1.3-0.4h0.6
	l1.6,0.6l0.7,0.6l1.5-1.1l2.1-1.2l1.8,0.3l1.8,1.6v1.9l1.8,0.9l1.3,0.8l0.4,1.9v1.1l-0.7,0.4l-0.6,1.1l-0.1,1.9l-0.6,0.6l-1.9,1.2
	l-0.1,0.9l0.2,1.9l1-0.5l0.7,0.3l0.5,1.3l0.8,1.8l0.8-0.5l1,1.4l-1.1,0.6l-0.3,0.7l1.4,0.3l1.1-0.3l1.1,0.8v0.9l-1.2,0.9l1.6,0.5
	l0.7-1.1l0.9-0.2l0.7,1.1v2.1l1.4,1.1l2.3-1l-1.4-1.4l-0.1-0.7l0.3-1.8l1.1-0.3l1.4,1.2l1.6,0.6l2.6-0.3l0.8,2.3l2.4,0.8l0.5,2.7
	v1.6l2,0.8v1.3h2.1l-0.3-2.3l3.3,0.1l1.4,1.3l0.3,1.8v0.8l0.8,1.4l4,4.4l-0.8,0.8l0.3,6.1H222"/>
</svg>
