<?xml version="1.0" encoding="utf-8"?>
<!-- Generator: Adobe Illustrator 20.1.0, SVG Export Plug-In . SVG Version: 6.00 Build 0)  -->
<svg version="1.1" id="Layer_1" xmlns="http://www.w3.org/2000/svg" xmlns:xlink="http://www.w3.org/1999/xlink" x="0px" y="0px"
	 viewBox="0 0 1000 1000" style="enable-background:new 0 0 1000 1000;" xml:space="preserve">
<style type="text/css">
	.st0{fill:none;stroke:rgb(51, 51, 51);stroke-width:8;stroke-miterlimit:10;}
</style>
<image style="display:none;overflow:visible;" width="52" height="146" xlink:href="../../../../Users/Adam/Pictures/lighthousesketch.png"  transform="matrix(6.7458 0 0 6.7458 333.6088 7.5556)">
</image>
<path class="st0" d="M374.9,389.1l-31.1,564.4c0,0-5.6,26.7,105.6,26.7s213.3-41.1,213.3-41.1l-28.9-550c0,0-22.8-13.3-130.6-13.3
	S374.9,389.1,374.9,389.1z"/>
<line class="st0" x1="421.6" y1="608" x2="421.6" y2="660.2"/>
<line class="st0" x1="588.2" y1="792.4" x2="588.2" y2="849.1"/>
<path class="st0" d="M358.2,349.1c0,0,41.6-22.2,150.8-22.2s140.3,22.2,140.3,22.2l-15.6,40c0,0-5.1-13.3-130.6-13.3
	s-128.3,13.3-128.3,13.3L358.2,349.1z"/>
<path class="st0" d="M367.1,294.7c0,0,43.6-27.8,132.9-27.8s141.6,27.8,141.6,27.8v50.4c0,0-49.6-18.2-132.6-18.2
	s-141.9,18.5-141.9,18.5V294.7z"/>
<path class="st0" d="M412.7,132.7c0,0,30.7-10,87.3-10s86,7.3,86,7.3v144.1c0,0-47.9-8.4-90.7-7.2c-42.4,1.1-82.7,8.6-82.7,8.6
	V132.7z"/>
<path class="st0" d="M412.7,132.7c0,0,14.5-69,87.3-69s86,66.3,86,66.3"/>
<circle class="st0" cx="499.3" cy="32.3" r="18.3"/>
</svg>
