<?xml version="1.0" encoding="utf-8"?>
<!-- Generator: Adobe Illustrator 20.1.0, SVG Export Plug-In . SVG Version: 6.00 Build 0)  -->
<svg version="1.1" xmlns="http://www.w3.org/2000/svg" xmlns:xlink="http://www.w3.org/1999/xlink" x="0px" y="0px"
	 viewBox="0 0 1000 1000" style="enable-background:new 0 0 1000 1000;" xml:space="preserve">
<style type="text/css">
	.st0{fill:none;stroke:#981B1E;stroke-width:24;stroke-miterlimit:10;}
	.st1{fill:#475A84;stroke:#000000;stroke-width:5;stroke-miterlimit:10;}
	.st2{fill:#FFFFFF;stroke:#000000;stroke-width:5;stroke-miterlimit:10;}
	.st3{fill:#475A84;}
	.st4{fill:#FFFFFF;}
	.st5{fill:none;stroke:#5A5758;stroke-width:8;stroke-miterlimit:10;}
	.st6{fill:none;stroke:#F9505D;stroke-width:8;stroke-miterlimit:10;}
	.st7{fill:#FFFFFF;stroke:#6B6B6B;stroke-width:6;stroke-miterlimit:10;}
	.st8{fill:none;stroke:#000000;stroke-width:8;stroke-miterlimit:10;}
	.st9{fill:#FFFFFF;stroke:#000000;stroke-width:6;stroke-miterlimit:10;}
	.st10{fill:#F9505D;}
	.st11{fill:#981B1E;stroke:#981B1E;stroke-width:3;stroke-miterlimit:10;}
	.st12{fill:#475A84;stroke:#475A84;stroke-width:2;stroke-miterlimit:10;}
	.st13{display:none;}
</style>
<g id="Layer_1">
	<path class="st0" d="M226.3,481.5C252.5,350.2,366,251.3,502.2,251.3c136,0,249.5,98.7,275.8,229.9"/>
	<path class="st0" d="M775.9,606.8c-29.7,126.4-141,220.4-273.7,220.4c-132.8,0-244.1-94-273.7-220.5"/>
	<polygon class="st1" points="500,953.7 500,737 541.7,733.8 	"/>
	<polyline class="st2" points="458.3,733.8 500,953.7 500,737 	"/>
	<polygon class="st3" points="500,953.7 500,737 541.7,733.8 	"/>
	<polyline class="st4" points="458.3,733.8 500,953.7 500,737 	"/>
	<polygon class="st3" points="346.7,406.3 316.3,365 358.7,392.8 	"/>
	<polygon class="st3" points="641.1,389.4 684,361.4 653.9,402.2 	"/>
	<polygon class="st3" points="653.3,673.4 681.9,716 640.6,686.5 	"/>
	<polygon class="st3" points="358.2,681.9 316.8,712.2 344.7,669.8 	"/>
	<path class="st5" d="M466.3,125V85.7H527V125C527,125,493.2,113.5,466.3,125z"/>
	<path class="st6" d="M455.7,149v-12.8c0,0,8-11.2,40-11.2s46,8.5,46,8.5L539,149H455.7z"/>
	<polyline class="st7" points="442.3,344.3 455.7,155 539,155 549.1,342.3 	"/>
	<path class="st8" d="M196.3,479.7l110.7,6.7c0,0,29.7-148.7,193-148.7s191,148.7,191,148.7l116.7-6.7"/>
	<path class="st8" d="M196.3,608.4l110.7-6c0,0,29.7,134.7,193,134.7s191-134.7,191-134.7l116.7,6"/>
	<line class="st9" x1="524.3" y1="298.3" x2="524.3" y2="321.7"/>
	<path class="st6" d="M467.3,78.7h57.3c0,0-7-18.7-28.7-18.7S467.3,78.7,467.3,78.7z"/>
	<circle class="st10" cx="495.7" cy="47" r="6.5"/>
	<g>
		<path class="st11" d="M402.7,489.2l-24.2-51.9v41.2c0,3.8,0.4,6.2,1.2,7.1c1.1,1.3,2.9,1.9,5.4,1.9h2.2v1.7h-21.8v-1.7h2.2
			c2.6,0,4.5-0.8,5.6-2.4c0.7-0.9,1-3.2,1-6.6v-40.3c0-2.7-0.3-4.6-0.9-5.9c-0.2-0.5-0.5-0.9-0.9-1.2c-0.4-0.4-0.9-0.7-1.5-1
			c-0.6-0.3-1.4-0.5-2.3-0.6c-0.9-0.2-2-0.2-3.3-0.2v-1.7h17.7l22.7,48.2l22.3-48.2H446v1.7h-2.2c-2.7,0-4.6,0.8-5.7,2.4
			c-0.7,0.9-1,3.2-1,6.6v40.3c0,3.8,0.4,6.2,1.3,7.1c1.1,1.3,2.9,1.9,5.4,1.9h2.2v1.7h-26.6v-1.7h2.2c2.6,0,4.5-0.8,5.6-2.4
			c0.7-0.9,1-3.2,1-6.6v-41.2l-24.1,51.9H402.7z"/>
		<path class="st11" d="M474.9,483.2c-4.3,3.3-7.1,5.2-8.2,5.7c-1.6,0.8-3.4,1.1-5.3,1.1c-1.4,0-2.8-0.3-4-0.8
			c-1.2-0.5-2.3-1.2-3.2-2.2c-0.9-0.9-1.6-2.1-2.1-3.4c-0.5-1.3-0.8-2.8-0.8-4.4c0-1.2,0.2-2.3,0.5-3.3c0.3-1,0.8-1.9,1.5-2.8
			c0.6-0.9,1.5-1.7,2.5-2.6c1-0.8,2.2-1.6,3.5-2.4c3.2-1.8,8.4-4.1,15.6-6.6V460c0-2.1-0.2-3.8-0.5-5.2c-0.4-1.4-0.9-2.5-1.5-3.3
			c-0.7-0.8-1.5-1.4-2.5-1.8c-1-0.3-2.1-0.5-3.3-0.5c-1,0-1.9,0.1-2.7,0.4c-0.8,0.3-1.5,0.7-2,1.1c-0.6,0.5-1,1-1.3,1.6
			c-0.3,0.6-0.4,1.3-0.4,1.9l0.1,2.6c0,1.4-0.4,2.5-1.1,3.2c-0.7,0.8-1.7,1.1-2.8,1.1c-1.1,0-2.1-0.4-2.8-1.2
			c-0.7-0.8-1.1-1.9-1.1-3.2c0-1.3,0.3-2.5,1-3.8c0.7-1.2,1.7-2.4,3-3.4c1.3-1,2.9-1.8,4.8-2.4c1.9-0.6,4.1-0.9,6.6-0.9
			c3.3,0,6,0.5,8.3,1.4c2.3,0.9,3.9,2.6,4.9,4.9c0.6,1.3,0.8,4,0.8,8v14.1c0,2,0,3.6,0.1,4.8c0,1.2,0.1,2,0.2,2.5
			c0.2,0.9,0.4,1.5,0.8,1.8c0.4,0.3,0.8,0.5,1.2,0.5c0.3,0,0.6,0,0.9-0.1c0.3-0.1,0.6-0.3,1-0.5c0.4-0.3,0.8-0.6,1.3-1.1
			c0.5-0.5,1.1-1.1,1.9-1.8v2.5c-3.5,4.5-6.8,6.8-9.9,6.8c-1.5,0-2.7-0.5-3.6-1.5S474.9,485.7,474.9,483.2z M474.9,480.2v-15.9
			c-2.3,0.9-4.3,1.7-5.7,2.3c-1.5,0.6-2.6,1.2-3.3,1.5c-2.4,1.4-4.2,2.8-5.2,4.2c-1,1.4-1.6,3-1.6,4.7c0,1.1,0.2,2.1,0.5,3
			c0.4,0.9,0.8,1.7,1.4,2.4s1.3,1.2,2.1,1.6c0.8,0.4,1.6,0.6,2.5,0.6C468,484.8,471.1,483.3,474.9,480.2z"/>
		<path class="st11" d="M505.2,446.3v9.4c3.6-6.2,7.2-9.4,10.9-9.4c0.8,0,1.6,0.1,2.3,0.4c0.7,0.3,1.3,0.6,1.9,1.1s1,1,1.2,1.6
			c0.3,0.6,0.4,1.2,0.4,1.9c0,1.2-0.4,2.2-1.2,3c-0.8,0.8-1.8,1.2-2.9,1.2c-0.5,0-1.1-0.2-1.8-0.5s-1.3-0.7-1.9-1.1
			c-0.6-0.4-1.2-0.7-1.7-1.1c-0.5-0.3-0.9-0.5-1.2-0.5c-0.4,0-0.8,0.2-1.3,0.5c-0.5,0.3-1,0.8-1.5,1.5c-0.5,0.6-1.1,1.4-1.6,2.2
			c-0.6,0.9-1.1,1.8-1.6,2.8v20c0,1.2,0.1,2.4,0.2,3.4c0.2,1,0.5,1.8,1,2.5c0.5,0.7,1.3,1.2,2.2,1.6c1,0.4,2.3,0.6,3.9,0.6v1.6H491
			v-1.6c1.4,0,2.5-0.1,3.3-0.3c0.9-0.2,1.5-0.5,2-1.1c0.5-0.5,0.8-1.3,1-2.3c0.2-1,0.3-2.4,0.3-4v-16.1c0-4.9-0.1-7.8-0.3-8.6
			c-0.4-1.8-1.4-2.7-3.1-2.7c-1,0-2,0.2-3.2,0.7l-0.5-1.6l12.8-5.1H505.2z"/>
		<path class="st11" d="M538.9,446.3v33.5c0,1.3,0,2.4,0.1,3.2c0.1,0.8,0.2,1.5,0.4,2c0.2,0.5,0.4,0.9,0.7,1.2
			c0.3,0.3,0.6,0.5,1,0.7c0.8,0.4,2.2,0.6,4.2,0.6v1.6h-20.5v-1.6c1,0,1.9,0,2.6-0.1s1.2-0.2,1.6-0.5c0.4-0.2,0.7-0.5,1-0.8
			c0.2-0.3,0.5-0.7,0.7-1.2c0.4-0.9,0.6-2.7,0.6-5.2v-16c0-2.6,0-4.7-0.1-6.2c-0.1-1.5-0.3-2.7-0.5-3.4c-0.2-0.8-0.6-1.2-1-1.4
			c-0.4-0.2-1-0.3-1.7-0.3c-0.9,0-1.9,0.2-3.1,0.7l-0.6-1.6l12.7-5.1H538.9z M535.1,424.5c0.6,0,1.3,0.1,1.8,0.4
			c0.6,0.2,1.1,0.6,1.5,1s0.7,0.9,1,1.5c0.2,0.6,0.4,1.2,0.4,1.8s-0.1,1.2-0.4,1.8c-0.2,0.6-0.6,1.1-1,1.5s-0.9,0.8-1.5,1
			c-0.6,0.2-1.2,0.4-1.8,0.4s-1.3-0.1-1.8-0.4c-0.6-0.2-1.1-0.6-1.5-1s-0.8-0.9-1-1.5c-0.2-0.6-0.4-1.2-0.4-1.8s0.1-1.2,0.4-1.8
			c0.2-0.6,0.6-1,1-1.5c0.4-0.4,0.9-0.7,1.5-1C533.8,424.7,534.4,424.5,535.1,424.5z"/>
		<path class="st11" d="M562.9,455.1c5-5.9,9.7-8.8,14.2-8.8c1.6,0,3,0.3,4.3,0.8c1.3,0.5,2.5,1.4,3.5,2.6c1,1.2,1.8,2.8,2.3,4.8
			c0.6,2,0.8,4.5,0.8,7.5v17.8c0,1.8,0.1,3.2,0.3,4.2c0.2,1,0.5,1.8,1,2.3c0.5,0.5,1.2,0.9,2,1c0.8,0.1,1.9,0.2,3.1,0.2v1.6h-20.9
			v-1.6h0.9c1.4,0,2.5-0.1,3.3-0.4c0.8-0.2,1.4-0.7,1.8-1.3c0.4-0.6,0.7-1.4,0.8-2.4c0.1-1,0.2-2.3,0.2-3.8v-17
			c0-3.8-0.5-6.5-1.5-8.2c-1-1.7-2.7-2.6-5-2.6c-3.7,0-7.3,2-10.9,5.9v22c0,2.8,0.2,4.5,0.5,5.2c0.2,0.5,0.5,0.8,0.7,1.2
			c0.3,0.3,0.6,0.6,1.1,0.8c0.4,0.2,1,0.3,1.8,0.4s1.7,0.1,2.8,0.1v1.6h-20.9v-1.6h0.9c1.1,0,2-0.1,2.7-0.4c0.7-0.2,1.3-0.7,1.7-1.3
			c0.4-0.6,0.7-1.4,0.9-2.4c0.2-1,0.2-2.2,0.2-3.7v-15.5c0-4.9-0.1-8-0.4-9.1c-0.2-1.1-0.6-1.8-1-2.2c-0.5-0.4-1.1-0.6-1.9-0.6
			c-0.9,0-1.9,0.2-3.1,0.7l-0.7-1.6l12.7-5.1h2V455.1z"/>
		<path class="st11" d="M604.9,463.2c0,3.1,0.4,5.9,1.2,8.3s2,4.5,3.4,6.2c1.4,1.7,3.1,3,4.9,3.9c1.9,0.9,3.8,1.3,5.9,1.3
			c2.8,0,5.2-0.7,7.2-2.2c2-1.5,3.8-4.1,5.1-7.7l1.4,0.9c-0.3,2-1,4-1.9,6c-1,2-2.2,3.7-3.7,5.3c-1.5,1.5-3.2,2.8-5.2,3.7
			c-2,1-4.1,1.4-6.5,1.4c-2.5,0-4.9-0.5-7.1-1.5s-4.2-2.5-5.9-4.3c-1.7-1.9-3-4.1-4-6.8c-1-2.7-1.5-5.6-1.5-8.9
			c0-3.6,0.5-6.8,1.5-9.6c1-2.8,2.4-5.2,4.1-7.1s3.8-3.4,6.2-4.4s4.9-1.5,7.7-1.5c2.3,0,4.5,0.4,6.5,1.2c2,0.8,3.7,1.9,5.1,3.4
			c1.4,1.5,2.6,3.3,3.4,5.3c0.8,2.1,1.2,4.4,1.2,7H604.9z M604.9,460.6h19.6c-0.1-2.7-0.4-4.5-1-5.6c-0.8-1.7-1.9-3-3.4-4
			c-1.5-1-3.1-1.5-4.8-1.5c-1.3,0-2.5,0.3-3.6,0.8s-2.2,1.2-3.2,2.2c-1,1-1.7,2.1-2.4,3.5C605.5,457.3,605.1,458.8,604.9,460.6z"/>
	</g>
	<g>
		<path class="st11" d="M338.9,542.1H372v-20.7c0-1.7,0-3.1-0.1-4.2c-0.1-1.1-0.2-1.9-0.4-2.6c-0.2-0.7-0.5-1.2-0.9-1.7
			c-0.4-0.4-0.9-0.8-1.5-1.1c-1.5-0.9-3.1-1.3-4.8-1.3h-2.5v-2h30.5l-0.1,2h-2.5c-0.7,0-1.4,0.1-2.1,0.2c-0.7,0.1-1.4,0.4-2.1,0.7
			c-0.7,0.3-1.3,0.7-1.8,1.2c-0.5,0.5-0.9,1.1-1.1,1.7c-0.4,1.2-0.6,3.5-0.6,7v46.7c0,1.7,0,3.1,0.1,4.2c0.1,1.1,0.2,1.9,0.4,2.6
			c0.2,0.7,0.5,1.2,0.8,1.6s0.9,0.8,1.5,1.1c1.5,0.9,3.1,1.3,4.8,1.3h2.5v2h-30.4v-2h2.5c2.9,0,5-0.9,6.3-2.6
			c0.9-1.1,1.3-3.8,1.3-8.2v-22h-33.1v22c0,1.7,0,3.1,0.1,4.2c0.1,1.1,0.2,1.9,0.4,2.6c0.2,0.7,0.5,1.2,0.9,1.6
			c0.4,0.4,0.9,0.8,1.5,1.1c1.5,0.9,3.1,1.3,4.8,1.3h2.6v2h-30.5v-2h2.5c3,0,5.1-0.9,6.4-2.6c0.8-1.1,1.3-3.8,1.3-8.2v-46.7
			c0-1.7,0-3.1-0.1-4.2c-0.1-1.1-0.2-1.9-0.4-2.6c-0.2-0.7-0.5-1.2-0.8-1.7c-0.4-0.4-0.9-0.8-1.5-1.1c-1.5-0.9-3.1-1.3-4.8-1.3h-2.5
			v-2h30.5v2h-2.6c-0.7,0-1.4,0.1-2.1,0.2c-0.7,0.1-1.4,0.4-2,0.7c-0.6,0.3-1.2,0.7-1.7,1.2c-0.5,0.5-0.9,1.1-1.1,1.7
			c-0.4,1.1-0.6,3.5-0.6,7V542.1z"/>
		<path class="st11" d="M405.9,550.5c0,3.6,0.5,6.9,1.4,9.8c0.9,2.9,2.2,5.3,3.8,7.3c1.6,2,3.5,3.5,5.6,4.6c2.1,1,4.3,1.6,6.7,1.6
			c3.1,0,5.9-0.9,8.2-2.6c2.3-1.8,4.3-4.8,5.9-9l1.6,1.1c-0.4,2.4-1.1,4.7-2.2,7c-1.1,2.3-2.5,4.4-4.2,6.2c-1.7,1.8-3.7,3.3-5.9,4.4
			c-2.3,1.1-4.7,1.7-7.4,1.7c-2.9,0-5.6-0.6-8.1-1.8c-2.5-1.2-4.8-2.9-6.7-5.1c-1.9-2.2-3.4-4.8-4.5-8c-1.1-3.1-1.7-6.6-1.7-10.5
			c0-4.2,0.6-8,1.7-11.3c1.1-3.3,2.7-6.1,4.7-8.4c2-2.3,4.3-4,7.1-5.2c2.7-1.2,5.6-1.8,8.7-1.8c2.7,0,5.1,0.5,7.4,1.4
			c2.3,0.9,4.2,2.3,5.9,4c1.6,1.7,2.9,3.8,3.9,6.3c0.9,2.4,1.4,5.2,1.4,8.2H405.9z M405.9,547.4h22.2c-0.1-3.1-0.5-5.3-1.1-6.6
			c-0.9-2-2.2-3.6-3.9-4.7c-1.7-1.1-3.5-1.7-5.4-1.7c-1.4,0-2.8,0.3-4.1,0.9c-1.3,0.6-2.5,1.4-3.6,2.6c-1.1,1.1-2,2.5-2.7,4.1
			C406.5,543.5,406,545.3,405.9,547.4z"/>
		<path class="st11" d="M459.5,530.6v11c4.1-7.3,8.2-11,12.4-11c0.9,0,1.8,0.2,2.6,0.5c0.8,0.3,1.5,0.8,2.1,1.3
			c0.6,0.6,1.1,1.2,1.4,1.9c0.3,0.7,0.5,1.5,0.5,2.2c0,1.4-0.5,2.6-1.4,3.5c-0.9,1-2,1.4-3.3,1.4c-0.6,0-1.3-0.2-2-0.6
			c-0.7-0.4-1.5-0.8-2.2-1.3c-0.7-0.4-1.4-0.9-2-1.3c-0.6-0.4-1-0.6-1.4-0.6c-0.5,0-1,0.2-1.5,0.6c-0.6,0.4-1.1,1-1.7,1.7
			c-0.6,0.7-1.2,1.6-1.8,2.6c-0.6,1-1.2,2.1-1.8,3.3v23.4c0,1.5,0.1,2.8,0.3,4c0.2,1.2,0.6,2.2,1.1,3c0.6,0.8,1.4,1.5,2.5,1.9
			c1.1,0.4,2.6,0.7,4.5,0.7v1.9h-24.6V579c1.5,0,2.8-0.1,3.8-0.3c1-0.2,1.7-0.6,2.3-1.3c0.6-0.6,0.9-1.6,1.2-2.7
			c0.2-1.2,0.3-2.8,0.3-4.7v-19c0-5.8-0.1-9.1-0.4-10.1c-0.5-2.1-1.6-3.1-3.5-3.1c-1.1,0-2.3,0.3-3.7,0.8l-0.5-1.9l14.5-6H459.5z"/>
		<path class="st11" d="M497.8,530.6v39.3c0,1.6,0.1,2.8,0.2,3.8c0.1,1,0.3,1.8,0.5,2.4s0.5,1.1,0.8,1.4c0.3,0.3,0.7,0.6,1.1,0.8
			c0.9,0.5,2.5,0.7,4.7,0.7v1.9h-23.3V579c1.2,0,2.2-0.1,2.9-0.2c0.8-0.1,1.4-0.3,1.8-0.5c0.5-0.2,0.8-0.6,1.1-0.9
			c0.3-0.4,0.5-0.8,0.8-1.4c0.5-1.1,0.7-3.1,0.7-6.1V551c0-3.1-0.1-5.5-0.2-7.3s-0.3-3.1-0.6-4c-0.3-0.9-0.6-1.5-1.2-1.7
			c-0.5-0.2-1.1-0.3-1.9-0.3c-1,0-2.2,0.3-3.6,0.8l-0.7-1.9l14.5-6H497.8z M493.5,505c0.7,0,1.4,0.1,2.1,0.4
			c0.6,0.3,1.2,0.7,1.7,1.1s0.8,1,1.1,1.7c0.3,0.7,0.4,1.4,0.4,2.1c0,0.7-0.1,1.5-0.4,2.1c-0.3,0.7-0.7,1.2-1.1,1.7
			c-0.5,0.5-1,0.9-1.7,1.2c-0.6,0.3-1.3,0.4-2.1,0.4c-0.7,0-1.4-0.1-2.1-0.4c-0.6-0.3-1.2-0.7-1.7-1.2c-0.5-0.5-0.9-1.1-1.2-1.7
			c-0.3-0.7-0.4-1.4-0.4-2.1c0-0.7,0.1-1.5,0.4-2.1c0.3-0.7,0.7-1.2,1.1-1.7c0.5-0.5,1-0.9,1.7-1.1C492,505.2,492.7,505,493.5,505z"
			/>
		<path class="st11" d="M525.1,516V532h11.2v3.7h-11.2v31.7c0,1.6,0.1,2.9,0.4,4c0.2,1.1,0.6,1.9,1,2.5c0.4,0.6,0.9,1,1.5,1.3
			s1.2,0.3,1.9,0.3c1.2,0,2.3-0.4,3.4-1.1c1.1-0.7,1.9-1.8,2.5-3.2h2c-0.6,1.7-1.4,3.3-2.3,4.6c-0.9,1.3-1.9,2.4-2.9,3.3
			c-1,0.9-2.2,1.5-3.4,2c-1.2,0.4-2.4,0.7-3.6,0.7c-0.8,0-1.6-0.1-2.4-0.3c-0.8-0.2-1.6-0.6-2.3-1c-0.7-0.4-1.4-1-2-1.6
			s-1.1-1.4-1.4-2.2c-0.7-1.7-1.1-4.3-1.1-7.8v-32.9h-7.6V534c1.9-0.8,3.9-2.1,5.9-4c2-1.9,3.8-4.1,5.4-6.6c0.4-0.7,0.9-1.6,1.4-2.9
			c0.6-1.2,1.2-2.7,1.9-4.6H525.1z"/>
		<path class="st11" d="M568.2,573.9c-4.9,3.9-8,6.2-9.3,6.7c-1.9,0.9-3.9,1.3-6,1.3c-1.6,0-3.2-0.3-4.6-0.9
			c-1.4-0.6-2.6-1.5-3.6-2.6c-1-1.1-1.8-2.4-2.4-4s-0.9-3.3-0.9-5.2c0-1.4,0.2-2.7,0.6-3.8c0.4-1.2,0.9-2.3,1.7-3.3s1.7-2.1,2.8-3
			s2.5-1.9,4-2.8c3.6-2.2,9.5-4.8,17.7-7.8v-1.9c0-2.5-0.2-4.5-0.6-6.1c-0.4-1.6-1-2.9-1.7-3.9c-0.8-1-1.7-1.7-2.8-2.1
			c-1.1-0.4-2.4-0.6-3.8-0.6c-1.1,0-2.1,0.2-3,0.5c-0.9,0.3-1.7,0.8-2.3,1.3c-0.6,0.6-1.1,1.2-1.4,1.9c-0.3,0.7-0.5,1.5-0.5,2.2
			l0.1,3.1c0,1.6-0.4,2.9-1.2,3.8s-1.9,1.3-3.2,1.3c-1.3,0-2.4-0.5-3.2-1.4c-0.8-0.9-1.2-2.2-1.2-3.8c0-1.5,0.4-3,1.2-4.4
			c0.8-1.5,1.9-2.8,3.4-4c1.5-1.2,3.3-2.1,5.5-2.8c2.2-0.7,4.7-1.1,7.5-1.1c3.7,0,6.9,0.6,9.4,1.7c2.6,1.1,4.5,3,5.6,5.7
			c0.6,1.6,0.9,4.7,0.9,9.4V564c0,2.3,0,4.2,0.1,5.7c0.1,1.4,0.1,2.4,0.2,2.9c0.2,1,0.5,1.7,0.9,2.1c0.4,0.4,0.9,0.5,1.4,0.5
			c0.3,0,0.7-0.1,1-0.2c0.3-0.1,0.7-0.3,1.1-0.6s0.9-0.8,1.5-1.3c0.6-0.6,1.3-1.3,2.2-2.2v3c-4,5.3-7.7,8-11.2,8
			c-1.7,0-3-0.6-4.1-1.8C568.7,578.9,568.2,576.8,568.2,573.9z M568.2,570.4v-18.6c-2.7,1.1-4.8,2-6.5,2.7c-1.7,0.7-2.9,1.4-3.7,1.8
			c-2.8,1.6-4.7,3.2-5.9,4.9c-1.2,1.7-1.8,3.5-1.8,5.6c0,1.3,0.2,2.5,0.6,3.5c0.4,1.1,0.9,2,1.6,2.8c0.7,0.8,1.5,1.4,2.4,1.9
			c0.9,0.4,1.9,0.7,2.8,0.7C560.4,575.8,563.9,574,568.2,570.4z"/>
		<path class="st11" d="M601.5,563.1c-3-1.5-5.2-3.5-6.8-6.1c-1.6-2.6-2.3-5.5-2.3-8.7c0-2.4,0.5-4.7,1.4-6.9c0.9-2.2,2.3-4,4-5.6
			c1.7-1.6,3.7-2.9,6.1-3.8c2.3-0.9,4.9-1.4,7.7-1.4c4.6,0,8.6,1.1,11.9,3.4h10.2c0.8,0,1.4,0,1.8,0c0.4,0,0.7,0.1,0.9,0.1
			c0.2,0.1,0.3,0.1,0.3,0.2c0,0.1,0.1,0.2,0.2,0.3c0.2,0.3,0.3,0.9,0.3,1.7c0,0.5,0,1,0,1.3s-0.1,0.6-0.3,0.8
			c-0.2,0.2-0.5,0.3-1,0.3c-0.5,0.1-1.2,0.1-2.1,0.1h-6.2c2,2.6,2.9,5.9,2.9,9.8c0,2.2-0.4,4.4-1.3,6.4s-2.2,3.8-3.8,5.3
			c-1.6,1.5-3.6,2.7-6,3.6s-5,1.3-7.8,1.3c-2.3,0-4.8-0.4-7.3-1.1c-1.6,1.4-2.6,2.5-3.1,3.5c-0.5,1-0.8,1.9-0.8,2.6
			c0,0.5,0.1,1,0.3,1.4s0.7,0.7,1.5,1s2,0.5,3.5,0.6s3.6,0.3,6.3,0.3c3.6,0.1,6.6,0.2,8.9,0.3c2.3,0.1,4,0.2,5.1,0.4
			c1.6,0.2,3.1,0.6,4.4,1.3c1.3,0.6,2.5,1.4,3.4,2.4s1.6,2.1,2.2,3.3c0.5,1.2,0.8,2.6,0.8,4.1c0,4-1.9,7.8-5.6,11.3
			c-5.5,5.2-12.6,7.8-21.4,7.8c-2.4,0-4.9-0.3-7.3-0.8c-2.5-0.5-4.7-1.3-6.8-2.2c-2-0.9-3.7-2-5-3.2c-1.3-1.2-1.9-2.6-1.9-4
			c0-0.5,0.1-1.1,0.2-1.6s0.4-1.1,0.7-1.8c0.3-0.6,0.8-1.3,1.3-2.1c0.5-0.7,1.2-1.6,2-2.6c0.2-0.3,2-2.2,5.4-5.8
			c-1.8-1.1-3.1-2.1-3.9-3c-0.8-0.9-1.1-1.9-1.1-3c0-0.6,0.1-1.3,0.3-2c0.2-0.7,0.6-1.5,1.2-2.4s1.4-1.9,2.5-3
			C598.2,566,599.7,564.7,601.5,563.1z M601,580.9c-3.3,3.7-5,6.8-5,9.4c0,1.2,0.5,2.2,1.4,3.2s2.3,1.8,3.9,2.5
			c1.6,0.7,3.6,1.2,5.8,1.6c2.2,0.4,4.6,0.6,7.1,0.6c3.1,0,5.9-0.3,8.2-1c2.3-0.6,4.2-1.5,5.7-2.5c1.5-1,2.6-2.2,3.4-3.4
			s1.1-2.5,1.1-3.8c0-0.9-0.2-1.7-0.6-2.3s-1.1-1.2-2.1-1.6c-1-0.4-2.4-0.7-4.1-1c-1.7-0.2-4-0.4-6.7-0.5c-4-0.1-7.4-0.3-10.4-0.5
			C605.7,581.5,603.1,581.2,601,580.9z M610.6,533.2c-1.3,0-2.4,0.3-3.6,0.8c-1.1,0.5-2.1,1.3-2.9,2.3c-0.8,1-1.5,2.4-1.9,4
			c-0.5,1.6-0.7,3.5-0.7,5.7c0,2.4,0.2,4.6,0.7,6.7c0.5,2,1.2,3.8,2.1,5.3c0.9,1.5,2,2.6,3.3,3.4s2.8,1.2,4.4,1.2
			c1.3,0,2.6-0.2,3.7-0.7c1.1-0.5,2.1-1.3,2.9-2.3c0.8-1,1.4-2.3,1.9-3.9c0.5-1.6,0.7-3.5,0.7-5.6c0-2.4-0.2-4.6-0.7-6.6
			s-1.2-3.8-2-5.3c-0.9-1.5-2-2.7-3.3-3.5C613.8,533.6,612.3,533.2,610.6,533.2z"/>
		<path class="st11" d="M650.5,550.5c0,3.6,0.5,6.9,1.4,9.8c0.9,2.9,2.2,5.3,3.8,7.3c1.6,2,3.5,3.5,5.6,4.6s4.3,1.6,6.7,1.6
			c3.1,0,5.9-0.9,8.2-2.6c2.3-1.8,4.3-4.8,5.9-9l1.6,1.1c-0.4,2.4-1.1,4.7-2.2,7c-1.1,2.3-2.5,4.4-4.2,6.2c-1.7,1.8-3.7,3.3-5.9,4.4
			c-2.3,1.1-4.7,1.7-7.4,1.7c-2.9,0-5.6-0.6-8.1-1.8c-2.5-1.2-4.8-2.9-6.7-5.1c-1.9-2.2-3.4-4.8-4.5-8c-1.1-3.1-1.7-6.6-1.7-10.5
			c0-4.2,0.6-8,1.7-11.3c1.1-3.3,2.7-6.1,4.7-8.4c2-2.3,4.3-4,7.1-5.2c2.7-1.2,5.6-1.8,8.7-1.8c2.7,0,5.1,0.5,7.4,1.4
			c2.3,0.9,4.2,2.3,5.9,4c1.6,1.7,2.9,3.8,3.9,6.3c0.9,2.4,1.4,5.2,1.4,8.2H650.5z M650.5,547.4h22.2c-0.1-3.1-0.5-5.3-1.1-6.6
			c-0.9-2-2.2-3.6-3.9-4.7c-1.7-1.1-3.5-1.7-5.4-1.7c-1.4,0-2.8,0.3-4.1,0.9c-1.3,0.6-2.5,1.4-3.6,2.6s-2,2.5-2.7,4.1
			S650.6,545.3,650.5,547.4z"/>
	</g>
	<g>
		<path class="st11" d="M401,600v20.6h-1.7c-0.5-3.9-1.5-7.1-3-9.4c-0.7-1.2-1.6-2.2-2.6-3.2c-1.1-0.9-2.2-1.7-3.4-2.4
			c-1.2-0.7-2.5-1.2-3.9-1.5c-1.4-0.4-2.8-0.5-4.2-0.5c-1.6,0-3,0.3-4.3,0.8c-1.3,0.5-2.5,1.2-3.5,2c-1,0.8-1.8,1.8-2.3,2.9
			s-0.8,2.2-0.8,3.4c0,1.6,0.4,3.1,1.2,4.3c0.8,1.2,1.9,2.3,3.3,3.4c1.4,1,3,2,4.9,3c1.9,1,3.9,2,6.1,3.1c2.5,1.3,4.8,2.5,7,3.7
			c2.2,1.2,4.2,2.5,5.9,4c1.7,1.4,3,3.1,4,5s1.5,4.1,1.5,6.7c0,2.2-0.5,4.3-1.4,6.3c-1,2-2.3,3.8-4,5.3c-1.7,1.5-3.8,2.7-6.2,3.6
			c-2.4,0.9-5,1.3-7.9,1.3c-1.1,0-2,0-2.7,0c-0.8,0-1.5-0.1-2.2-0.2c-0.7-0.1-1.4-0.3-2.2-0.5c-0.7-0.2-1.6-0.5-2.7-0.9
			c-0.7-0.3-1.5-0.5-2.2-0.7c-0.8-0.2-1.5-0.4-2.1-0.5c-0.6-0.1-1.2-0.3-1.6-0.4c-0.4-0.1-0.7-0.1-0.8-0.1c-0.8,0-1.4,0.2-1.8,0.7
			c-0.4,0.4-0.8,1.3-1,2.7h-1.7v-20.4h1.7c0.4,2.1,0.9,4,1.4,5.6c0.5,1.6,1.1,2.9,1.8,4c0.7,1.1,1.5,2,2.6,2.9
			c1.1,0.9,2.3,1.7,3.6,2.3s2.8,1.2,4.3,1.5c1.5,0.4,3.1,0.5,4.7,0.5c1.9,0,3.6-0.3,5.2-0.8c1.5-0.5,2.8-1.2,3.9-2.1
			c1.1-0.9,1.9-1.9,2.4-3.1c0.6-1.2,0.8-2.4,0.8-3.7c0-1.9-0.4-3.5-1.2-4.8c-0.8-1.3-1.9-2.5-3.3-3.5c-1.4-1-3-2-4.8-2.9
			c-1.8-0.9-3.8-2-5.8-3.2c-2.3-1.3-4.5-2.6-6.7-3.8c-2.1-1.2-4-2.5-5.7-3.9c-1.6-1.4-3-3-4-4.8c-1-1.8-1.5-4-1.5-6.5
			c0-2.1,0.5-4.1,1.4-6c0.9-1.9,2.2-3.6,3.8-5c1.6-1.4,3.5-2.6,5.7-3.4c2.2-0.8,4.6-1.3,7.2-1.3c3.2,0,6.7,0.8,10.5,2.3
			c1.6,0.7,2.8,1.1,3.6,1.1c0.8,0,1.4-0.2,1.9-0.7c0.5-0.5,0.9-1.4,1.2-2.7H401z"/>
		<path class="st11" d="M433.6,619.5c3,0,5.7,0.6,8.1,1.7c2.5,1.1,4.6,2.6,6.4,4.5c1.8,1.9,3.2,4.1,4.2,6.5c1,2.5,1.5,5.1,1.5,7.9
			c0,2.9-0.5,5.7-1.5,8.3c-1,2.6-2.4,5-4.3,7s-4,3.7-6.5,4.9c-2.5,1.2-5.3,1.8-8.3,1.8c-3,0-5.6-0.6-8.1-1.8
			c-2.4-1.2-4.5-2.7-6.2-4.7s-3.1-4.2-4-6.7c-0.9-2.5-1.4-5.1-1.4-7.8c0-2.7,0.5-5.4,1.5-8c1-2.6,2.4-4.9,4.1-7
			c1.8-2,3.9-3.7,6.4-4.9C427.8,620.1,430.6,619.5,433.6,619.5z M432.2,622.4c-1.3,0-2.6,0.3-3.9,0.8c-1.2,0.5-2.3,1.4-3.3,2.6
			c-1,1.2-1.7,2.8-2.3,4.7c-0.6,1.9-0.9,4.2-0.9,7c0,2.8,0.3,5.6,0.9,8.2c0.6,2.6,1.5,4.9,2.7,6.9s2.5,3.5,4.2,4.7
			c1.6,1.2,3.5,1.8,5.5,1.8c1.5,0,2.8-0.3,4-0.8c1.2-0.5,2.3-1.4,3.2-2.6s1.6-2.8,2.1-4.8c0.5-2,0.8-4.4,0.8-7.3s-0.3-5.6-0.9-8.2
			c-0.6-2.5-1.4-4.8-2.5-6.7s-2.5-3.4-4.1-4.5C436.1,622.9,434.2,622.4,432.2,622.4z"/>
		<path class="st11" d="M495.5,645.6c-0.6,2.7-1.4,5-2.6,7.1c-1.2,2-2.5,3.8-4.1,5.2c-1.6,1.4-3.3,2.5-5.1,3.2
			c-1.9,0.7-3.8,1.1-5.8,1.1c-2.3,0-4.6-0.5-6.7-1.5c-2.1-1-4-2.4-5.6-4.3c-1.6-1.8-2.9-4.1-3.9-6.7c-1-2.6-1.5-5.6-1.5-8.8
			c0-3.2,0.5-6,1.6-8.7c1.1-2.6,2.5-4.9,4.3-6.7s3.9-3.3,6.4-4.4s5-1.6,7.7-1.6c2,0,3.9,0.3,5.6,0.9c1.7,0.6,3.2,1.3,4.5,2.3
			c1.2,0.9,2.2,2,2.9,3.1c0.7,1.1,1.1,2.3,1.1,3.4c0,1.1-0.4,2-1.1,2.7c-0.7,0.7-1.8,1-3.2,1c-0.7,0-1.3-0.1-1.9-0.2
			c-0.6-0.1-1.1-0.4-1.6-0.8c-0.4-0.4-0.8-0.9-1.1-1.6c-0.3-0.7-0.5-1.5-0.5-2.6c-0.2-1.7-0.8-3-1.8-3.9c-1.1-0.9-2.5-1.3-4.5-1.3
			c-1.8,0-3.4,0.4-4.8,1.2c-1.4,0.8-2.5,1.8-3.5,3.2c-0.9,1.3-1.7,2.9-2.1,4.7c-0.5,1.8-0.7,3.6-0.7,5.6c0,2.3,0.3,4.6,0.9,6.8
			c0.6,2.2,1.5,4.1,2.7,5.8c1.2,1.7,2.6,3.1,4.3,4.1c1.7,1,3.6,1.5,5.7,1.5c1.3,0,2.5-0.2,3.7-0.5c1.2-0.3,2.3-0.8,3.3-1.6
			c1.1-0.8,2.1-1.8,3.1-3.1c1-1.3,1.9-3,2.9-5.1L495.5,645.6z"/>
		<path class="st11" d="M515.9,619.5v32.3c0,1.3,0,2.3,0.1,3.1c0.1,0.8,0.2,1.5,0.4,2c0.2,0.5,0.4,0.9,0.7,1.1
			c0.3,0.2,0.6,0.5,1,0.7c0.8,0.4,2.2,0.6,4.1,0.6v1.6h-20.3v-1.6c1,0,1.9,0,2.5-0.1s1.2-0.2,1.6-0.4c0.4-0.2,0.7-0.5,1-0.8
			c0.2-0.3,0.4-0.7,0.7-1.1c0.4-0.9,0.6-2.6,0.6-5v-15.5c0-2.5,0-4.5-0.1-6c-0.1-1.5-0.3-2.6-0.5-3.3c-0.2-0.7-0.6-1.2-1-1.4
			s-1-0.3-1.7-0.3c-0.9,0-1.9,0.2-3.1,0.7l-0.6-1.6l12.6-4.9H515.9z M512.1,598.5c0.6,0,1.2,0.1,1.8,0.4c0.6,0.2,1.1,0.5,1.5,0.9
			c0.4,0.4,0.7,0.9,1,1.4c0.2,0.5,0.4,1.1,0.4,1.7s-0.1,1.2-0.4,1.7c-0.2,0.5-0.6,1-1,1.4c-0.4,0.4-0.9,0.7-1.5,1s-1.2,0.4-1.8,0.4
			c-0.6,0-1.2-0.1-1.8-0.4c-0.6-0.2-1.1-0.6-1.5-1c-0.4-0.4-0.8-0.9-1-1.4c-0.2-0.5-0.4-1.1-0.4-1.7s0.1-1.2,0.4-1.7
			c0.2-0.5,0.6-1,1-1.4c0.4-0.4,0.9-0.7,1.5-0.9C510.8,598.6,511.5,598.5,512.1,598.5z"/>
		<path class="st11" d="M534.5,635.8c0,3,0.4,5.7,1.2,8c0.8,2.4,1.9,4.4,3.3,6s3,2.9,4.9,3.8c1.8,0.9,3.8,1.3,5.8,1.3
			c2.7,0,5.1-0.7,7.2-2.2c2-1.4,3.7-3.9,5.1-7.4l1.4,0.9c-0.3,2-1,3.9-1.9,5.8c-0.9,1.9-2.2,3.6-3.6,5.1c-1.5,1.5-3.2,2.7-5.2,3.6
			c-2,0.9-4.1,1.4-6.4,1.4c-2.5,0-4.9-0.5-7.1-1.5s-4.1-2.4-5.8-4.2c-1.7-1.8-3-4-4-6.5c-1-2.6-1.5-5.4-1.5-8.6
			c0-3.5,0.5-6.6,1.5-9.3s2.4-5,4.1-6.9c1.7-1.9,3.8-3.3,6.1-4.3c2.4-1,4.9-1.4,7.6-1.4c2.3,0,4.5,0.4,6.4,1.2
			c2,0.8,3.7,1.9,5.1,3.3c1.4,1.4,2.6,3.2,3.4,5.2c0.8,2,1.2,4.2,1.2,6.7H534.5z M534.5,633.3h19.4c-0.1-2.6-0.4-4.4-1-5.4
			c-0.8-1.6-1.9-2.9-3.4-3.9c-1.5-0.9-3.1-1.4-4.7-1.4c-1.3,0-2.5,0.2-3.6,0.7s-2.2,1.2-3.2,2.1c-0.9,0.9-1.7,2-2.4,3.4
			C535,630.1,534.6,631.6,534.5,633.3z"/>
		<path class="st11" d="M581.2,607.5v13.2h9.8v3.1h-9.8v26.1c0,1.3,0.1,2.4,0.3,3.3c0.2,0.9,0.5,1.5,0.9,2c0.4,0.5,0.8,0.8,1.3,1
			s1.1,0.3,1.7,0.3c1,0,2-0.3,2.9-0.9c0.9-0.6,1.7-1.5,2.2-2.7h1.8c-0.5,1.4-1.2,2.7-2,3.8c-0.8,1.1-1.6,2-2.5,2.7
			c-0.9,0.7-1.9,1.3-2.9,1.6c-1,0.4-2.1,0.5-3.1,0.5c-0.7,0-1.4-0.1-2.1-0.3c-0.7-0.2-1.4-0.5-2-0.8c-0.6-0.4-1.2-0.8-1.7-1.3
			c-0.5-0.5-0.9-1.1-1.2-1.8c-0.6-1.4-1-3.6-1-6.4v-27H567v-1.4c1.7-0.6,3.4-1.7,5.1-3.3c1.8-1.5,3.3-3.4,4.7-5.5
			c0.3-0.6,0.8-1.3,1.3-2.3s1.1-2.3,1.7-3.8H581.2z"/>
		<path class="st11" d="M592.6,620.7h19.5v1.6h-1c-1.4,0-2.4,0.3-3.1,0.9c-0.7,0.6-1,1.3-1,2.1c0,1.1,0.5,2.7,1.5,4.7l10.2,20.3
			l9.4-22.2c0.5-1.2,0.8-2.4,0.8-3.6c0-0.4,0-0.7-0.1-0.9c-0.1-0.3-0.3-0.5-0.6-0.7c-0.3-0.2-0.7-0.4-1.3-0.5
			c-0.6-0.1-1.3-0.2-2.2-0.2v-1.6h13.6v1.6c-0.8,0.1-1.4,0.2-2,0.3c-0.5,0.1-1,0.4-1.4,0.8c-0.4,0.4-0.9,1-1.3,1.8
			c-0.4,0.8-0.9,1.8-1.5,3.2l-17,40.1c-0.8,1.9-1.8,3.6-2.9,5.1s-2.3,2.7-3.6,3.7c-1.3,1-2.5,1.7-3.9,2.2s-2.6,0.8-3.8,0.8
			c-0.9,0-1.7-0.1-2.5-0.4c-0.7-0.3-1.4-0.6-1.9-1.1s-1-1-1.3-1.6c-0.3-0.6-0.5-1.2-0.5-1.8c0-1.2,0.4-2.2,1.3-3
			c0.8-0.7,2-1.1,3.5-1.1c0.3,0,0.8,0.1,1.5,0.3c0.7,0.2,1.3,0.4,2,0.5c0.7,0.2,1.3,0.4,1.9,0.5c0.5,0.2,0.9,0.3,1.1,0.3
			c0.5,0,0.9-0.1,1.4-0.3c0.5-0.2,1-0.6,1.6-1.1s1.1-1.2,1.6-2c0.5-0.9,1.1-1.9,1.6-3.2l3-7l-15-30.3c-0.2-0.3-0.4-0.8-0.8-1.3
			c-0.4-0.5-0.7-1.1-1.1-1.6c-0.4-0.6-0.8-1.1-1.2-1.5c-0.4-0.5-0.7-0.8-1-1c-0.6-0.5-1.8-0.9-3.4-1.2V620.7z"/>
	</g>
	<g>
		<g>
			<path class="st12" d="M317.5,247.4c2.2,2.7,4.5,5.5,6.7,8.2c-0.2,0.2-0.5,0.3-0.7,0.5c-1.3-1-2.7-1.7-4-2.2
				c-1.3-0.5-2.6-0.7-3.9-0.7c-1.3,0-2.5,0.2-3.7,0.7c-1.2,0.5-2.4,1.1-3.6,2c-2,1.5-3.5,3.2-4.4,5.1c-0.9,1.9-1.1,4.1-0.7,6.4
				c0.2,1.3,0.7,2.6,1.4,3.9c0.7,1.3,1.6,2.7,2.7,4.2c1.7,2.2,3.6,3.8,5.7,4.8c1.1,0.5,2.1,0.8,3.2,1c1.1,0.2,2.2,0.2,3.3,0
				c1.1-0.2,2.2-0.5,3.3-0.9c1.1-0.5,2.1-1.1,3.1-1.8c1.1-0.8,2.1-1.6,2.8-2.4c0.7-0.8,1.2-1.6,1.6-2.6c0.4-0.9,0.7-1.9,0.9-3
				c0.2-1.1,0.4-2.4,0.6-3.8c0.3,0,0.6,0,0.9-0.1c0,1.6-0.1,3.1-0.3,4.5c-0.3,1.4-0.7,2.7-1.3,3.9c-0.6,1.2-1.3,2.3-2.2,3.3
				c-0.9,1-2,2-3.3,2.9c-4.6,3.3-9.1,4.5-14,3.4c-3.6-0.7-6.6-2.6-9.1-5.5c-1.2-1.4-2.1-3-2.7-4.7c-0.6-1.7-0.9-3.5-0.9-5.4
				c0-1.3,0.2-2.7,0.6-4c0.4-1.3,0.9-2.6,1.6-3.8c0.7-1.2,1.5-2.4,2.5-3.5c1-1.1,2.1-2.1,3.3-3c2.2-1.6,4.7-2.7,7.5-3.3
				c0.9-0.2,1.4-0.3,1.6-0.5c0.5-0.3,0.8-0.8,0.9-1.3c0.1-0.5,0-1.1-0.2-1.7C316.9,247.8,317.2,247.6,317.5,247.4z"/>
			<path class="st12" d="M327.8,239.9c2.8,4.3,5.5,8.6,8.2,12.9c0.2-0.7,0.4-1.4,0.6-2.1c0.2-0.7,0.5-1.4,0.8-2.1
				c0.3-0.7,0.7-1.3,1.2-2c0.5-0.6,1.2-1.2,2-1.6c1.1-0.6,2.2-1,3.1-1c1,0,1.8,0.3,2.6,0.7c0.8,0.5,1.5,1.1,2.2,1.9
				c0.7,0.8,1.2,1.7,1.8,2.6c1.4,2.4,2.7,4.8,4.1,7.2c0.3,0.6,0.6,1.1,0.9,1.5c0.3,0.4,0.6,0.7,0.9,0.8c0.3,0.2,0.7,0.2,1.2,0.1
				c0.5-0.1,1.1-0.3,1.9-0.7c0.1,0.2,0.3,0.5,0.4,0.7c-3.3,1.8-6.6,3.6-9.8,5.5c-0.1-0.2-0.3-0.5-0.4-0.7c0.2-0.1,0.3-0.2,0.5-0.3
				c0.6-0.4,1.1-0.7,1.4-1c0.3-0.3,0.5-0.7,0.5-1c0-0.4,0-0.8-0.3-1.2c-0.2-0.5-0.5-1-0.9-1.7c-1.4-2.4-2.8-4.8-4.2-7.1
				c-0.3-0.6-0.7-1.1-1.1-1.7c-0.4-0.6-0.8-1-1.3-1.4c-0.5-0.4-1-0.6-1.7-0.6c-0.6,0-1.4,0.2-2.3,0.7c-0.4,0.2-0.7,0.5-1.1,0.8
				c-0.3,0.3-0.7,0.7-1,1.1c-0.3,0.4-0.6,1-0.8,1.6c-0.3,0.6-0.5,1.3-0.7,2.2c2,3.1,3.9,6.2,5.9,9.4c0.4,0.6,0.7,1.1,1,1.5
				c0.3,0.3,0.5,0.6,0.7,0.7c0.2,0.1,0.4,0.2,0.6,0.2c0.2,0,0.4,0,0.7,0c0.3,0,0.6-0.1,1-0.3c0.4-0.2,0.8-0.4,1.3-0.7
				c0.1,0.2,0.3,0.5,0.4,0.7c-3.2,1.9-6.5,3.9-9.6,6c-0.2-0.2-0.3-0.5-0.5-0.7c0.5-0.3,1-0.7,1.3-1c0.3-0.3,0.6-0.6,0.7-1
				c0.1-0.4,0.1-0.8-0.1-1.3c-0.2-0.5-0.5-1.1-1-1.9c-3.4-5.3-6.9-10.6-10.3-15.9c-1.3-2-2.2-3.2-2.6-3.6c-0.4-0.4-0.8-0.6-1.1-0.6
				c-0.3,0-0.7,0.1-1.1,0.4c-0.4,0.2-0.8,0.7-1.4,1.3c-0.3-0.2-0.5-0.3-0.8-0.5c1.6-2.1,3.3-4.1,4.9-6.2
				C327.1,240.3,327.5,240.1,327.8,239.9z"/>
			<path class="st12" d="M371.8,249.5c-1.4,2.5-2.3,4-2.7,4.5c-0.6,0.7-1.4,1.3-2.3,1.8c-0.7,0.4-1.4,0.6-2.1,0.6
				c-0.7,0.1-1.4,0-2-0.2c-0.7-0.2-1.3-0.5-1.8-1c-0.6-0.5-1-1-1.4-1.7c-0.3-0.5-0.5-1-0.6-1.6c-0.1-0.5-0.1-1.1,0-1.6
				c0.1-0.6,0.3-1.2,0.6-1.8c0.3-0.6,0.7-1.3,1.2-2c1.1-1.6,3.2-3.9,6.3-6.8c-0.1-0.2-0.2-0.5-0.4-0.7c-0.5-0.9-1-1.7-1.4-2.2
				c-0.5-0.5-1-0.9-1.5-1.1c-0.5-0.2-1.1-0.3-1.7-0.2c-0.6,0.1-1.2,0.3-1.8,0.6c-0.5,0.3-0.9,0.5-1.3,0.9c-0.3,0.3-0.6,0.7-0.8,1
				c-0.2,0.4-0.3,0.7-0.3,1.1c0,0.4,0.1,0.7,0.2,1c0.2,0.4,0.4,0.8,0.7,1.1c0.3,0.6,0.4,1.2,0.2,1.7c-0.2,0.5-0.6,0.9-1.2,1.2
				c-0.6,0.3-1.1,0.4-1.7,0.2c-0.6-0.2-1-0.5-1.3-1.1c-0.3-0.6-0.4-1.2-0.4-1.9c0.1-0.7,0.3-1.5,0.7-2.3c0.4-0.8,1.1-1.6,1.9-2.3
				c0.8-0.8,1.9-1.5,3.2-2.1c1.7-0.8,3.2-1.3,4.6-1.4c1.4-0.1,2.6,0.2,3.6,1c0.6,0.5,1.3,1.6,2.2,3.4c1,2.1,2.1,4.3,3.1,6.4
				c0.4,0.9,0.8,1.6,1.1,2.2c0.3,0.5,0.5,0.9,0.6,1.1c0.3,0.4,0.5,0.6,0.8,0.6c0.2,0.1,0.5,0,0.7-0.1c0.2-0.1,0.3-0.2,0.4-0.3
				c0.1-0.1,0.2-0.3,0.4-0.5c0.1-0.2,0.3-0.5,0.4-0.8c0.1-0.3,0.3-0.7,0.6-1.3c0.2,0.4,0.4,0.8,0.5,1.2c-0.8,2.8-1.9,4.6-3.4,5.3
				c-0.7,0.3-1.4,0.4-2.1,0.1C372.9,251.3,372.3,250.6,371.8,249.5z M371.1,248.2c-1.2-2.4-2.4-4.8-3.5-7.1c-1,1-1.8,1.8-2.4,2.4
				c-0.6,0.7-1,1.2-1.3,1.5c-0.9,1.2-1.4,2.3-1.6,3.2c-0.2,0.9-0.1,1.7,0.3,2.5c0.3,0.5,0.6,0.9,1,1.2c0.4,0.3,0.8,0.6,1.3,0.7
				c0.5,0.2,0.9,0.2,1.4,0.2c0.5,0,0.9-0.1,1.3-0.4C368.8,251.9,369.9,250.4,371.1,248.2z"/>
			<path class="st12" d="M381.3,229.9c1.4-3.8,3.4-6.2,5.8-7.1c0.8-0.3,1.7-0.5,2.5-0.5c0.8,0,1.6,0.1,2.3,0.5
				c0.8,0.4,1.5,1,2.1,1.8c0.7,0.8,1.3,1.9,1.8,3.4c1.1,2.8,2.1,5.6,3.2,8.3c0.3,0.8,0.6,1.5,0.9,1.9c0.3,0.4,0.6,0.7,0.9,0.9
				c0.3,0.2,0.7,0.2,1.2,0.1c0.4-0.1,1-0.2,1.6-0.5c0.1,0.3,0.2,0.5,0.3,0.8c-3.5,1.2-7.1,2.6-10.6,3.9c-0.1-0.3-0.2-0.5-0.3-0.8
				c0.1-0.1,0.3-0.1,0.4-0.2c0.7-0.3,1.2-0.5,1.6-0.8c0.4-0.3,0.6-0.6,0.7-0.9c0.1-0.4,0.1-0.8-0.1-1.3c-0.1-0.5-0.3-1.1-0.6-1.8
				c-1.1-2.7-2.1-5.3-3.2-8c-0.7-1.8-1.5-2.9-2.3-3.5c-0.9-0.6-1.9-0.6-3.2-0.2c-1.9,0.8-3.5,2.5-4.6,5.1c1.5,3.4,2.9,6.7,4.4,10.1
				c0.5,1.3,1,2,1.3,2.3c0.2,0.2,0.4,0.3,0.6,0.4c0.2,0.1,0.4,0.1,0.7,0.1c0.3,0,0.6-0.1,1-0.2c0.4-0.1,0.9-0.3,1.4-0.5
				c0.1,0.3,0.2,0.5,0.3,0.8c-3.5,1.4-6.9,2.9-10.4,4.4c-0.1-0.2-0.2-0.5-0.3-0.7c0.2-0.1,0.3-0.1,0.5-0.2c0.5-0.2,1-0.5,1.3-0.8
				c0.3-0.3,0.5-0.6,0.6-0.9c0.1-0.4,0.1-0.8-0.1-1.3c-0.1-0.5-0.3-1.1-0.7-1.8c-1.1-2.4-2.1-4.7-3.2-7.1c-1-2.3-1.7-3.6-2.1-4.1
				c-0.3-0.5-0.7-0.7-1-0.8c-0.3-0.1-0.7,0-1.1,0.2c-0.5,0.2-0.9,0.5-1.5,1c-0.2-0.2-0.5-0.4-0.7-0.6c1.9-1.8,3.7-3.5,5.7-5.2
				c0.4-0.1,0.7-0.3,1.1-0.4C380.1,227.2,380.7,228.5,381.3,229.9z"/>
			<path class="st12" d="M403,210.5c0.7,2.2,1.5,4.3,2.2,6.5c1.8-0.6,3.6-1.1,5.4-1.7c0.2,0.5,0.3,1,0.5,1.5
				c-1.8,0.5-3.6,1.1-5.4,1.7c1.5,4.3,2.9,8.6,4.4,12.8c0.2,0.6,0.5,1.2,0.7,1.6c0.3,0.4,0.5,0.7,0.8,0.9c0.3,0.2,0.6,0.3,0.9,0.3
				c0.3,0,0.6,0,0.9-0.1c0.5-0.2,1-0.5,1.4-0.9c0.4-0.4,0.6-1,0.7-1.7c0.3-0.1,0.6-0.2,0.9-0.3c-0.1,0.8-0.2,1.5-0.5,2.2
				c-0.2,0.7-0.5,1.2-0.9,1.7c-0.4,0.5-0.8,0.9-1.3,1.3c-0.5,0.3-1,0.6-1.5,0.8c-0.4,0.1-0.7,0.2-1.1,0.2c-0.4,0-0.8,0-1.2-0.1
				c-0.4-0.1-0.8-0.2-1.1-0.4c-0.4-0.2-0.7-0.4-1-0.7c-0.6-0.6-1.1-1.6-1.6-3c-1.6-4.4-3.1-8.8-4.7-13.2c-1.2,0.4-2.4,0.8-3.6,1.2
				c-0.1-0.2-0.2-0.5-0.3-0.7c0.8-0.6,1.5-1.5,2.2-2.6c0.7-1.1,1.2-2.3,1.6-3.5c0.1-0.3,0.2-0.8,0.3-1.4c0.1-0.6,0.2-1.3,0.3-2.1
				C402.4,210.7,402.7,210.6,403,210.5z"/>
			<path class="st12" d="M419.5,212.1c0.4,1.5,0.9,3,1.3,4.5c1.1-3.5,2.7-5.6,4.8-6.1c0.5-0.1,0.9-0.2,1.3-0.1
				c0.4,0,0.8,0.1,1.2,0.3c0.4,0.2,0.7,0.4,0.9,0.6c0.2,0.3,0.4,0.5,0.5,0.9c0.1,0.6,0.1,1.1-0.3,1.6c-0.3,0.5-0.8,0.8-1.4,1
				c-0.3,0.1-0.6,0.1-1,0c-0.4-0.1-0.8-0.2-1.2-0.2c-0.4-0.1-0.8-0.2-1.1-0.3c-0.3-0.1-0.6-0.1-0.7-0.1c-0.2,0.1-0.4,0.2-0.7,0.4
				c-0.2,0.2-0.4,0.5-0.6,0.9c-0.2,0.4-0.4,0.8-0.6,1.3c-0.2,0.5-0.3,1-0.5,1.6c0.9,3.2,1.9,6.4,2.8,9.6c0.2,0.6,0.4,1.1,0.6,1.6
				c0.2,0.5,0.5,0.8,0.9,1.1c0.4,0.3,0.8,0.4,1.4,0.5c0.6,0,1.3,0,2.1-0.3c0.1,0.3,0.1,0.5,0.2,0.8c-3.8,1-7.5,2-11.2,3.1
				c-0.1-0.3-0.2-0.5-0.2-0.8c0.7-0.2,1.3-0.4,1.7-0.6c0.4-0.2,0.7-0.5,0.9-0.8c0.2-0.3,0.2-0.8,0.2-1.3c-0.1-0.5-0.2-1.2-0.4-2
				c-0.8-2.6-1.6-5.2-2.3-7.7c-0.7-2.4-1.2-3.7-1.4-4.1c-0.5-0.8-1.2-1.1-2.1-0.8c-0.5,0.2-1.1,0.4-1.7,0.9
				c-0.2-0.2-0.3-0.5-0.5-0.7c2.1-1.5,4.2-3,6.3-4.5C418.8,212.3,419.2,212.2,419.5,212.1z"/>
			<path class="st12" d="M429,210.3c3.7-0.9,7.4-1.7,11.1-2.5c0.1,0.3,0.1,0.5,0.2,0.8c-0.2,0-0.4,0.1-0.5,0.1
				c-0.8,0.2-1.3,0.4-1.6,0.8c-0.3,0.4-0.4,0.8-0.3,1.2c0.1,0.6,0.6,1.3,1.4,2.2c2.7,3,5.3,6.1,7.9,9.1c0.9-4.1,1.9-8.2,2.9-12.3
				c0.2-0.7,0.2-1.3,0.1-1.9c0-0.2-0.1-0.3-0.2-0.5c-0.1-0.1-0.2-0.2-0.4-0.3c-0.2-0.1-0.4-0.1-0.8-0.1c-0.3,0-0.8,0.1-1.3,0.2
				c-0.1-0.3-0.1-0.6-0.2-0.8c2.6-0.5,5.2-0.9,7.8-1.4c0,0.3,0.1,0.6,0.1,0.8c-0.4,0.1-0.8,0.2-1.1,0.4c-0.3,0.1-0.5,0.3-0.7,0.5
				c-0.2,0.2-0.4,0.6-0.6,1c-0.2,0.4-0.3,1-0.5,1.8c-1.9,7.4-3.7,14.8-5.2,22.2c-0.2,1.1-0.5,2-1,2.9c-0.4,0.9-0.9,1.6-1.4,2.3
				c-0.5,0.6-1.1,1.2-1.7,1.6c-0.6,0.4-1.2,0.7-1.9,0.8c-0.5,0.1-0.9,0.1-1.3,0.1c-0.4-0.1-0.8-0.2-1.1-0.3
				c-0.3-0.2-0.6-0.4-0.9-0.6c-0.2-0.3-0.4-0.5-0.5-0.9c-0.2-0.6-0.1-1.2,0.3-1.6c0.3-0.5,0.9-0.8,1.7-1c0.2,0,0.4-0.1,0.8,0
				c0.4,0,0.7,0,1.1,0c0.4,0,0.7,0,1,0.1c0.3,0,0.5,0,0.6,0c0.2-0.1,0.5-0.2,0.7-0.3c0.2-0.2,0.5-0.4,0.7-0.7
				c0.2-0.3,0.4-0.7,0.6-1.2c0.2-0.5,0.4-1.1,0.5-1.8c0.3-1.3,0.5-2.6,0.8-3.9c-3.8-4.6-7.7-9.1-11.7-13.6c-0.1-0.1-0.3-0.3-0.6-0.6
				c-0.3-0.2-0.5-0.5-0.8-0.7c-0.3-0.2-0.6-0.4-0.9-0.6c-0.3-0.2-0.5-0.3-0.7-0.4c-0.4-0.2-1.1-0.2-2.1-0.2
				C429.2,210.8,429.1,210.6,429,210.3z"/>
			<path class="st12" d="M487,221.4c0,0.3,0,0.6,0.1,0.8c-4.8,0.3-9.6,0.8-14.4,1.4c0-0.3-0.1-0.6-0.1-0.8c0.4,0,0.8-0.1,1.2-0.1
				c1.4-0.2,2.4-0.6,2.9-1.4c0.3-0.5,0.4-1.7,0.2-3.5c-0.7-6.6-1.4-13.2-2.2-19.8c-0.1-0.7-0.2-1.3-0.2-1.8
				c-0.1-0.4-0.2-0.8-0.3-1.1c-0.1-0.3-0.3-0.5-0.5-0.6c-0.2-0.1-0.5-0.3-0.8-0.4c-0.8-0.3-1.7-0.4-2.6-0.3c-0.4,0-0.9,0.1-1.3,0.2
				c0-0.3-0.1-0.6-0.1-0.8c5.3-0.6,10.5-1.1,15.8-1.5c0,0.3,0,0.6,0.1,0.8c-0.4,0-0.9,0.1-1.3,0.1c-1.5,0.1-2.6,0.6-3.2,1.4
				c-0.4,0.5-0.5,1.7-0.3,3.5c0.6,6.6,1.2,13.2,1.9,19.9c0.1,0.7,0.1,1.3,0.2,1.8c0.1,0.5,0.2,0.8,0.3,1.1c0.1,0.3,0.3,0.5,0.5,0.7
				c0.2,0.2,0.5,0.3,0.8,0.4c0.7,0.3,1.5,0.4,2.3,0.4C486.2,221.4,486.6,221.4,487,221.4z"/>
			<path class="st12" d="M504.2,200c0,2.4,0.1,4.7,0.1,7.1c-0.3,0-0.6,0-0.9,0c-0.4-1.1-0.8-2-1.2-2.8c-0.4-0.7-0.9-1.3-1.5-1.7
				c-0.6-0.4-1.2-0.7-1.8-0.9c-0.7-0.2-1.4-0.2-2.2-0.2c-0.6,0-1.2,0.1-1.7,0.3c-0.5,0.2-0.9,0.4-1.3,0.7c-0.3,0.3-0.6,0.6-0.8,0.9
				c-0.2,0.3-0.3,0.7-0.2,1c0,0.4,0.1,0.8,0.3,1.2c0.2,0.4,0.5,0.7,0.9,1.1c0.5,0.4,1.1,0.7,2,1.2c0.8,0.4,2,0.9,3.4,1.4
				c1.3,0.5,2.4,1,3.3,1.5c0.9,0.5,1.6,1,2.1,1.5c0.5,0.5,0.9,1.1,1.2,1.6c0.2,0.6,0.4,1.2,0.4,1.8c0,1-0.2,1.8-0.6,2.6
				c-0.4,0.8-1,1.5-1.7,2c-0.7,0.6-1.5,1-2.4,1.3c-0.9,0.3-1.8,0.5-2.8,0.5c-0.7,0-1.4,0-2.2-0.1c-0.8-0.1-1.6-0.2-2.6-0.4
				c-0.3-0.1-0.5-0.1-0.8-0.1c-0.2,0-0.4,0-0.6,0c-0.4,0-0.7,0.2-0.9,0.6c-0.3,0-0.5,0-0.8,0c-0.2-2.5-0.3-5-0.5-7.4
				c0.3,0,0.6,0,0.8,0c0.3,1,0.7,2,1.2,2.7c0.5,0.8,1.1,1.4,1.8,1.9c0.7,0.5,1.4,0.9,2.1,1.1c0.8,0.2,1.5,0.3,2.3,0.3
				c0.6,0,1.1-0.1,1.5-0.3c0.5-0.2,0.9-0.4,1.2-0.7c0.3-0.3,0.6-0.6,0.8-1c0.2-0.4,0.3-0.8,0.3-1.2c0-0.5-0.1-1-0.3-1.4
				c-0.2-0.4-0.5-0.8-1-1.2c-0.5-0.4-1.1-0.8-1.9-1.2c-0.8-0.4-1.9-0.9-3.1-1.4c-1.3-0.5-2.3-0.9-3.1-1.4c-0.8-0.4-1.4-0.9-1.9-1.3
				c-0.5-0.5-0.8-0.9-1-1.4c-0.2-0.5-0.3-1.1-0.3-1.8c-0.1-0.8,0.1-1.6,0.4-2.4c0.3-0.8,0.8-1.4,1.4-2c0.6-0.6,1.4-1,2.3-1.4
				c0.9-0.4,1.9-0.6,3-0.6c0.3,0,0.8,0,1.3,0.1c0.5,0.1,1.1,0.2,1.6,0.2c0.5,0.1,1,0.2,1.5,0.3c0.4,0.1,0.7,0.1,0.9,0.1
				c0.3,0,0.5-0.1,0.7-0.2c0.2-0.1,0.3-0.3,0.5-0.7C503.6,200,503.9,200,504.2,200z"/>
			<path class="st12" d="M518.3,189.1c-0.2,9.2-0.4,18.4-0.6,27.6c0,0.7,0,1.2,0,1.6c0,0.4,0.1,0.8,0.2,1c0.1,0.3,0.2,0.4,0.4,0.6
				c0.2,0.1,0.3,0.3,0.6,0.4c0.4,0.2,1.2,0.3,2.4,0.4c0,0.3,0,0.5,0,0.8c-3.7-0.1-7.4-0.2-11.2-0.2c0-0.3,0-0.5,0-0.8
				c0.7,0,1.3-0.1,1.8-0.2c0.4-0.1,0.8-0.3,1-0.6c0.2-0.3,0.4-0.7,0.5-1.2c0.1-0.5,0.1-1.2,0.1-2c0.1-6.3,0.1-12.6,0.2-18.9
				c0-1.2,0-2.1,0-2.9c0-0.7-0.1-1.2-0.1-1.5c-0.1-0.5-0.3-0.9-0.6-1.1c-0.3-0.2-0.6-0.3-1.1-0.3c-0.5,0-1.1,0.1-1.8,0.4
				c-0.2-0.3-0.3-0.5-0.5-0.8c2.5-0.9,5-1.7,7.5-2.5C517.5,189.1,517.9,189.1,518.3,189.1z"/>
			<path class="st12" d="M537,219.4c-2.5,1.5-4,2.3-4.6,2.5c-0.9,0.3-1.9,0.4-2.9,0.4c-0.8,0-1.5-0.2-2.1-0.5
				c-0.6-0.3-1.2-0.7-1.7-1.2c-0.5-0.5-0.8-1.1-1.1-1.7c-0.2-0.7-0.4-1.4-0.3-2.2c0-0.6,0.1-1.1,0.3-1.6c0.2-0.5,0.5-1,0.9-1.4
				c0.4-0.4,0.9-0.8,1.4-1.2c0.6-0.4,1.3-0.7,2-1.1c1.8-0.8,4.8-1.8,9-2.7c0-0.3,0-0.5,0.1-0.8c0.1-1,0.1-1.9-0.1-2.6
				c-0.1-0.7-0.4-1.3-0.7-1.7c-0.3-0.4-0.8-0.8-1.3-1c-0.5-0.2-1.2-0.3-1.9-0.4c-0.6,0-1.1,0-1.5,0.1c-0.5,0.1-0.9,0.3-1.2,0.5
				c-0.3,0.2-0.6,0.5-0.8,0.8c-0.2,0.3-0.3,0.6-0.3,0.9c0,0.4,0,0.9,0,1.3c0,0.7-0.3,1.2-0.7,1.6c-0.4,0.4-1,0.5-1.6,0.5
				c-0.6,0-1.2-0.3-1.5-0.7c-0.4-0.4-0.6-1-0.5-1.6c0-0.6,0.3-1.3,0.7-1.9c0.4-0.6,1-1.1,1.8-1.6c0.8-0.5,1.7-0.8,2.9-1
				c1.1-0.2,2.4-0.3,3.8-0.2c1.9,0.1,3.4,0.5,4.7,1.1c1.3,0.6,2.1,1.5,2.6,2.7c0.2,0.7,0.3,2,0.1,4c-0.2,2.3-0.5,4.7-0.7,7
				c-0.1,1-0.2,1.8-0.2,2.4c0,0.6,0,1,0,1.3c0,0.4,0.1,0.8,0.3,0.9c0.2,0.2,0.4,0.3,0.6,0.3c0.2,0,0.3,0,0.5,0
				c0.2,0,0.3-0.1,0.6-0.2c0.2-0.1,0.5-0.3,0.8-0.5c0.3-0.2,0.7-0.5,1.1-0.8c0,0.4-0.1,0.8-0.1,1.3c-2.1,2.1-4,3-5.7,2.9
				c-0.8-0.1-1.4-0.4-1.9-0.9C537.1,221.6,536.9,220.7,537,219.4z M537.1,218c0.2-2.6,0.5-5.3,0.7-7.9c-1.3,0.3-2.4,0.7-3.3,0.9
				c-0.9,0.3-1.5,0.5-1.9,0.6c-1.4,0.6-2.4,1.2-3,1.9c-0.6,0.7-1,1.5-1,2.3c0,0.5,0,1.1,0.2,1.5c0.2,0.5,0.4,0.9,0.7,1.2
				c0.3,0.4,0.7,0.6,1.1,0.9c0.4,0.2,0.9,0.3,1.3,0.4C533.2,220,534.9,219.3,537.1,218z"/>
			<path class="st12" d="M555.4,207.3c3.2-2.5,6.1-3.6,8.7-3.2c0.9,0.1,1.7,0.4,2.4,0.8c0.7,0.4,1.3,0.9,1.7,1.6
				c0.4,0.7,0.7,1.6,0.9,2.6c0.1,1,0.1,2.3-0.2,3.8c-0.5,2.9-1.1,5.8-1.6,8.8c-0.2,0.9-0.2,1.6-0.2,2.1c0,0.5,0.1,0.9,0.3,1.3
				c0.2,0.3,0.5,0.5,1,0.7c0.4,0.1,1,0.3,1.6,0.4c-0.1,0.3-0.1,0.5-0.2,0.8c-3.7-0.7-7.4-1.3-11.1-1.9c0-0.3,0.1-0.5,0.1-0.8
				c0.2,0,0.3,0,0.5,0.1c0.7,0.1,1.3,0.1,1.8,0.1c0.4-0.1,0.8-0.2,1.1-0.5c0.3-0.3,0.5-0.6,0.6-1.1c0.1-0.5,0.3-1.1,0.4-1.8
				c0.5-2.8,1-5.6,1.4-8.4c0.3-1.9,0.3-3.3-0.1-4.2c-0.4-0.9-1.3-1.5-2.6-1.7c-2.1-0.3-4.3,0.4-6.6,2.1c-0.5,3.6-1,7.3-1.5,10.9
				c-0.2,1.4-0.2,2.2-0.1,2.6c0.1,0.2,0.2,0.5,0.3,0.6c0.1,0.2,0.3,0.3,0.5,0.5c0.2,0.1,0.5,0.2,0.9,0.3c0.4,0.1,0.9,0.2,1.5,0.3
				c0,0.3-0.1,0.5-0.1,0.8c-3.7-0.5-7.4-1-11.2-1.4c0-0.3,0.1-0.5,0.1-0.8c0.2,0,0.3,0,0.5,0.1c0.6,0.1,1.1,0.1,1.5,0
				c0.4-0.1,0.7-0.3,1-0.5c0.3-0.3,0.5-0.7,0.6-1.1c0.1-0.5,0.3-1.1,0.4-1.8c0.3-2.6,0.6-5.1,1-7.7c0.3-2.5,0.4-4,0.4-4.6
				c-0.1-0.6-0.2-0.9-0.4-1.2c-0.2-0.2-0.6-0.4-1-0.4c-0.5-0.1-1.1,0-1.8,0.1c-0.1-0.3-0.2-0.6-0.3-0.9c2.5-0.6,5-1.1,7.6-1.7
				c0.4,0,0.8,0.1,1.1,0.1C555.8,204.4,555.6,205.8,555.4,207.3z"/>
			<path class="st12" d="M587.8,228.3c-1.4,0.8-2.6,1.3-3.7,1.5c-1.1,0.2-2.3,0.2-3.5-0.1c-1.2-0.3-2.3-0.8-3.3-1.5
				c-1-0.7-1.8-1.6-2.5-2.7c-0.7-1.1-1.1-2.2-1.4-3.6c-0.3-1.3-0.2-2.7,0.1-4.2c0.6-2.9,2.2-5.4,4.8-7.4c2.7-2,5.7-2.6,9.1-1.9
				c2.1,0.5,3.7,1.5,4.7,2.9c0.6-2.2,1.2-4.4,1.7-6.6c0.1-0.3,0.2-0.6,0.3-0.9c0.1-0.3,0.2-0.6,0.1-0.9c0-0.3-0.1-0.6-0.3-0.8
				c-0.2-0.2-0.6-0.4-1.2-0.6c-0.5-0.1-1.1-0.1-1.9-0.1c0-0.3-0.1-0.6-0.2-0.9c2.6-0.3,5.3-0.5,7.9-0.7c0.4,0.1,0.8,0.2,1.2,0.3
				c-2.2,7.8-4.3,15.5-6.4,23.3c-0.7,2.4-1,3.8-1,4.4c0,0.5,0.1,1,0.3,1.2c0.2,0.3,0.5,0.5,0.8,0.6c0.4,0.1,1,0.1,1.8,0.1
				c0,0.3,0,0.6,0,0.8c-2.4,0.2-4.8,0.5-7.2,0.8c-0.4-0.1-0.7-0.2-1.1-0.3C587.3,230.3,587.6,229.3,587.8,228.3z M588.2,226.8
				c0.9-3.5,1.8-6.9,2.7-10.4c0.1-0.9,0.1-1.7-0.1-2.4c-0.2-0.7-0.5-1.4-0.9-2c-0.4-0.6-0.9-1-1.4-1.4c-0.6-0.4-1.1-0.6-1.8-0.8
				c-0.9-0.2-1.8-0.2-2.7,0c-0.9,0.2-1.7,0.7-2.4,1.3c-0.7,0.6-1.4,1.4-1.9,2.4c-0.6,1-1,2.1-1.3,3.4c-0.3,1.5-0.4,2.9-0.3,4.1
				c0.2,1.2,0.5,2.3,0.9,3.3c0.5,0.9,1.1,1.7,1.8,2.3c0.7,0.6,1.5,1,2.4,1.2C584.9,228.1,586.5,227.8,588.2,226.8z"/>
			<path class="st12" d="M646.3,217.6c-1,2.2-2,4.4-2.9,6.6c-0.2-0.1-0.4-0.2-0.6-0.2c0.3-0.9,0.4-1.8,0.3-2.5c0-0.7-0.2-1.4-0.6-2
				c-0.3-0.6-0.8-1.1-1.5-1.6c-0.6-0.5-1.5-0.9-2.4-1.3c-1.6-0.6-3.2-1.3-4.8-1.9c-2.9,7.3-5.8,14.7-8.7,22c-0.7,1.8-0.9,3-0.7,3.6
				c0.3,0.8,1.1,1.5,2.4,1.9c0.4,0.1,0.7,0.3,1.1,0.4c-0.1,0.3-0.2,0.5-0.3,0.8c-4.4-1.7-8.9-3.4-13.4-4.9c0.1-0.3,0.2-0.5,0.3-0.8
				c0.4,0.1,0.8,0.3,1.1,0.4c1.3,0.5,2.4,0.4,3.3-0.1c0.5-0.3,1.1-1.3,1.7-2.9c2.8-7.4,5.6-14.7,8.4-22.1c-1.4-0.5-2.8-1-4.2-1.5
				c-1.1-0.4-2-0.6-2.9-0.8c-0.8-0.1-1.6-0.1-2.3,0.1c-0.7,0.2-1.3,0.5-1.9,1.1c-0.6,0.6-1.1,1.3-1.6,2.3c-0.3-0.1-0.6-0.2-1-0.3
				c0.8-2.3,1.5-4.6,2.3-6.9C627.2,210.1,636.8,213.6,646.3,217.6z"/>
			<path class="st12" d="M656.5,232.5c1.6,0.7,2.8,1.7,3.9,2.8c1,1.1,1.8,2.4,2.2,3.7c0.5,1.3,0.6,2.7,0.5,4.1
				c-0.1,1.4-0.5,2.7-1.2,4c-0.7,1.3-1.6,2.5-2.8,3.4c-1.2,1-2.4,1.7-3.8,2.2c-1.4,0.5-2.8,0.7-4.4,0.7c-1.5,0-3-0.4-4.5-1.1
				c-1.5-0.7-2.6-1.6-3.6-2.7c-0.9-1.1-1.6-2.3-2.1-3.6c-0.5-1.3-0.7-2.7-0.6-4.1c0.1-1.4,0.4-2.7,0.9-4c0.6-1.3,1.4-2.4,2.5-3.5
				c1.1-1,2.3-1.8,3.7-2.3c1.4-0.5,2.9-0.8,4.5-0.8C653.3,231.3,654.9,231.7,656.5,232.5z M655.1,233.4c-0.7-0.3-1.4-0.5-2.2-0.6
				c-0.8,0-1.5,0.1-2.3,0.4c-0.8,0.3-1.5,0.9-2.3,1.7c-0.7,0.8-1.4,1.8-2,3.1c-0.6,1.3-1.1,2.7-1.3,4.1c-0.3,1.4-0.3,2.6-0.2,3.8
				c0.1,1.2,0.5,2.2,1,3.2c0.5,0.9,1.3,1.6,2.3,2.1c0.7,0.3,1.4,0.5,2.2,0.6c0.7,0,1.5-0.1,2.2-0.4c0.7-0.3,1.5-0.9,2.2-1.7
				c0.7-0.8,1.4-1.9,2.1-3.2c0.7-1.3,1.2-2.7,1.5-4c0.3-1.3,0.4-2.6,0.3-3.7c-0.1-1.2-0.5-2.2-1.1-3.1
				C657,234.7,656.2,233.9,655.1,233.4z"/>
			<path class="st12" d="M688.4,250.5c-2.3,3.6-4.6,7.1-6.8,10.7c-1.3,2.1-2.1,3.4-2.2,3.9c-0.2,0.5-0.2,0.9-0.1,1.3
				c0.1,0.3,0.3,0.6,0.7,0.8c0.4,0.3,1,0.5,1.7,0.6c0,0.3-0.1,0.6-0.1,0.9c-2.4-0.5-4.8-1-7.2-1.4c-0.3-0.2-0.6-0.4-1-0.6
				c0.8-1.3,1.5-2.5,2.3-3.8c-2.7,0.6-4.7,0.9-5.8,0.9c-1.1-0.1-2.2-0.4-3.2-1c-1.1-0.6-1.9-1.5-2.4-2.5c-0.5-1-0.6-2.1-0.4-3.2
				c0.2-1.1,0.8-2.5,1.7-4.2c1.5-2.7,3-5.4,4.6-8.1c0.3-0.6,0.6-1.1,0.6-1.5c0.1-0.4,0.1-0.8-0.1-1.2c-0.2-0.3-0.4-0.7-0.8-1
				c-0.4-0.3-0.9-0.6-1.5-0.9c-0.1,0-0.2-0.1-0.3-0.1c0.1-0.2,0.3-0.5,0.4-0.7c2.5,1.3,5,2.7,7.5,4.1c-2.4,4-4.7,8.1-7,12.1
				c-0.5,0.9-0.8,1.6-0.9,2.3c-0.1,0.6-0.1,1.2,0,1.7c0.1,0.5,0.4,0.9,0.7,1.2c0.3,0.3,0.7,0.6,1.2,0.9c0.3,0.2,0.7,0.3,1.1,0.5
				c0.4,0.1,0.9,0.2,1.4,0.2c0.5,0,1.1,0,1.8,0c0.7-0.1,1.4-0.2,2.3-0.3c2.1-3.4,4.1-6.7,6.2-10.1c0.3-0.5,0.5-0.9,0.6-1.3
				c0.1-0.4,0.1-0.8,0-1.1c-0.1-0.4-0.4-0.7-0.8-1c-0.4-0.3-0.9-0.7-1.6-1.1c0.1-0.2,0.3-0.5,0.4-0.7
				C683.7,247.6,686,249,688.4,250.5z"/>
			<path class="st12" d="M699.7,257.1c-0.9,1.3-1.8,2.6-2.7,3.9c3.5-1.4,6.1-1.5,7.9-0.3c0.4,0.3,0.7,0.6,1,0.9
				c0.3,0.3,0.4,0.7,0.5,1.1c0.1,0.4,0.1,0.7,0.1,1.1c0,0.3-0.2,0.6-0.4,0.9c-0.4,0.5-0.8,0.7-1.5,0.8c-0.6,0.1-1.2-0.1-1.7-0.5
				c-0.2-0.2-0.5-0.4-0.7-0.8c-0.2-0.3-0.4-0.7-0.6-1.1c-0.2-0.4-0.4-0.7-0.5-1c-0.1-0.3-0.3-0.5-0.4-0.6c-0.2-0.1-0.5-0.2-0.8-0.2
				c-0.3,0-0.7,0-1.1,0.1c-0.4,0.1-0.9,0.2-1.4,0.4c-0.5,0.2-1,0.4-1.6,0.7c-1.9,2.7-3.8,5.5-5.7,8.2c-0.4,0.5-0.6,1-0.9,1.5
				c-0.2,0.5-0.3,0.9-0.3,1.4c0,0.4,0.2,0.9,0.5,1.4c0.3,0.5,0.9,0.9,1.6,1.4c-0.2,0.2-0.3,0.4-0.5,0.7c-3.2-2.2-6.5-4.4-9.8-6.5
				c0.1-0.2,0.3-0.5,0.4-0.7c0.6,0.4,1.2,0.7,1.6,0.9c0.4,0.2,0.9,0.2,1.2,0.1c0.4-0.1,0.7-0.3,1.1-0.7c0.4-0.4,0.8-0.9,1.2-1.6
				c1.5-2.2,3-4.5,4.5-6.7c1.4-2,2.1-3.3,2.3-3.7c0.3-0.9,0.1-1.6-0.7-2.1c-0.5-0.3-1-0.5-1.7-0.7c0.1-0.3,0.2-0.6,0.2-0.8
				c2.5,0.6,5.1,1.2,7.6,1.9C699,256.6,699.4,256.8,699.7,257.1z"/>
			<path class="st12" d="M721.3,273c-1.5,1.8-3,3.7-4.5,5.5c-0.2-0.2-0.5-0.4-0.7-0.5c0.5-1.1,0.7-2,0.9-2.9c0.1-0.8,0.1-1.6,0-2.3
				c-0.1-0.7-0.4-1.3-0.8-1.8c-0.4-0.6-0.9-1.1-1.6-1.6c-0.5-0.4-1-0.7-1.5-0.8c-0.5-0.2-1-0.3-1.4-0.3c-0.4,0-0.8,0-1.2,0.2
				c-0.4,0.1-0.6,0.3-0.8,0.6c-0.3,0.3-0.4,0.7-0.6,1.1c-0.1,0.4-0.1,0.8,0,1.4c0.1,0.6,0.4,1.3,0.8,2.1c0.4,0.9,1,1.9,1.7,3.3
				c0.7,1.2,1.2,2.3,1.5,3.3c0.4,1,0.6,1.8,0.7,2.6c0.1,0.8,0,1.4-0.1,2c-0.2,0.6-0.5,1.1-0.8,1.6c-0.6,0.7-1.3,1.3-2.2,1.6
				c-0.8,0.3-1.7,0.5-2.6,0.5c-0.9,0-1.8-0.2-2.7-0.5c-0.9-0.3-1.7-0.8-2.5-1.4c-0.6-0.4-1.1-0.9-1.7-1.5c-0.6-0.6-1.1-1.2-1.7-2
				c-0.2-0.2-0.3-0.4-0.5-0.6c-0.2-0.2-0.3-0.3-0.4-0.4c-0.3-0.2-0.7-0.2-1.1-0.1c-0.2-0.2-0.4-0.3-0.7-0.5c1.5-2,3-4,4.4-6
				c0.2,0.2,0.5,0.3,0.7,0.5c-0.4,1-0.7,2-0.8,2.9c-0.1,0.9-0.1,1.8,0.1,2.6c0.2,0.8,0.5,1.5,0.9,2.2c0.4,0.7,1,1.3,1.6,1.8
				c0.5,0.3,0.9,0.6,1.4,0.8c0.5,0.2,0.9,0.2,1.4,0.2c0.5,0,0.9-0.1,1.3-0.3c0.4-0.2,0.7-0.4,1-0.8c0.3-0.4,0.5-0.8,0.7-1.3
				c0.1-0.4,0.1-0.9,0-1.5c-0.1-0.6-0.4-1.3-0.7-2.1c-0.4-0.8-0.9-1.9-1.6-3.1c-0.7-1.2-1.2-2.2-1.5-3.1c-0.3-0.8-0.6-1.6-0.6-2.2
				c-0.1-0.7,0-1.2,0.2-1.7c0.2-0.5,0.5-1,0.9-1.6c0.5-0.7,1.1-1.2,1.9-1.6c0.7-0.4,1.5-0.6,2.4-0.6c0.9,0,1.7,0.1,2.7,0.4
				c0.9,0.3,1.8,0.8,2.7,1.4c0.3,0.2,0.6,0.5,1,0.9c0.4,0.4,0.7,0.8,1.1,1.2c0.4,0.4,0.7,0.8,1,1.1c0.3,0.3,0.5,0.6,0.6,0.7
				c0.2,0.2,0.4,0.3,0.6,0.3c0.2,0,0.5,0,0.9-0.2C720.9,272.6,721.1,272.8,721.3,273z"/>
		</g>
	</g>
</g>
<g id="Layer_2" class="st13">
	
		<image style="display:inline;overflow:visible;" width="130" height="183" xlink:href="../assets/MHS_logo.png"  transform="matrix(5.4349 0 0 5.4349 146.73 0)">
	</image>
</g>
</svg>
