<?xml version="1.0" encoding="utf-8"?>
<!-- Generator: Adobe Illustrator 20.1.0, SVG Export Plug-In . SVG Version: 6.00 Build 0)  -->
<svg version="1.1" id="Layer_1" xmlns="http://www.w3.org/2000/svg" xmlns:xlink="http://www.w3.org/1999/xlink" x="0px" y="0px"
	 viewBox="0 0 1000 1000" style="enable-background:new 0 0 1000 1000;" xml:space="preserve">
<style type="text/css">
	.st0{fill:none;stroke:#000000;stroke-width:9;stroke-miterlimit:10;}
</style>
<image style="display:none;overflow:visible;" width="180" height="102" xlink:href="../../../../Users/Adam/Pictures/physicalreqvector.png"  transform="matrix(5.2789 0 0 5.2789 24.902 235.7778)">
</image>
<path class="st0" d="M31.6,715.3V579.1l7.8-42.2L50.4,500l10-27.6l13.3-18.9l10-16.7l5.6-33.3v-34.4l14.4-40v-83.3l7.7-6.3L126,242
	l50.5,23.5L191,268h105l36.5-3l46.5-7l42.5-5.5H437l10,12l12,31l4.5,19V358l6,24l5,15.5l12,15.5l33.5,30l39.5,35.5l29.5,19l35,18.5
	l32.5,13.5L688,538l30,6.5h70.5L811,542l42-2l31,1l28,6.5l21,9.5l13,12l10.5,16l8.5,20l2.5,15.5L965,637l-6.5,18L945,673.5L931,685
	l-31,20l-37,15.5L823.5,734l-53,15.5l-46,8.5l-49,7l-48.5,5H516l-86.5-11.5L359,757l-67,2.5l-54.5,5.5h-62L107,755l-50-15l-16.3-9.1
	C35,727.7,31.6,721.8,31.6,715.3z"/>
</svg>
